<svg width="36" height="35" viewBox="0 0 36 35" fill="none" xmlns="http://www.w3.org/2000/svg">
<path d="M11.7342 27.5425C11.7342 27.684 11.5715 27.7972 11.3664 27.7972C11.133 27.8184 10.9703 27.7052 10.9703 27.5425C10.9703 27.4011 11.133 27.2879 11.3381 27.2879C11.5503 27.2667 11.7342 27.3798 11.7342 27.5425ZM9.5345 27.2242C9.48499 27.3657 9.62645 27.5284 9.83864 27.5708C10.0225 27.6416 10.2347 27.5708 10.2772 27.4294C10.3196 27.2879 10.1852 27.1252 9.97303 27.0616C9.78913 27.012 9.58401 27.0828 9.5345 27.2242ZM12.6608 27.104C12.4557 27.1535 12.3142 27.2879 12.3354 27.4506C12.3567 27.592 12.5406 27.684 12.7527 27.6345C12.9579 27.585 13.0993 27.4506 13.0781 27.3091C13.0569 27.1747 12.8659 27.0828 12.6608 27.104ZM17.3149 0C7.50453 0 0 7.44794 0 17.2583C0 25.1023 4.937 31.8147 11.9889 34.1771C12.8942 34.3397 13.2125 33.781 13.2125 33.3212C13.2125 32.8827 13.1913 30.4637 13.1913 28.9784C13.1913 28.9784 8.24013 30.0393 7.20038 26.8706C7.20038 26.8706 6.39405 24.8123 5.23407 24.2818C5.23407 24.2818 3.61434 23.1714 5.34724 23.1926C5.34724 23.1926 7.10843 23.3341 8.07744 25.0174C9.62645 27.7476 12.2223 26.9625 13.2337 26.4957C13.3964 25.364 13.8561 24.5789 14.3654 24.1121C10.4116 23.6736 6.42235 23.1006 6.42235 16.2963C6.42235 14.3513 6.9599 13.3752 8.09159 12.1303C7.90769 11.6706 7.30648 9.77498 8.27549 7.3277C9.75376 6.86795 13.1559 9.23743 13.1559 9.23743C14.5705 8.84134 16.0912 8.63622 17.5978 8.63622C19.1044 8.63622 20.6251 8.84134 22.0397 9.23743C22.0397 9.23743 25.4418 6.86088 26.9201 7.3277C27.8891 9.78205 27.2879 11.6706 27.104 12.1303C28.2357 13.3822 28.9289 14.3583 28.9289 16.2963C28.9289 23.1219 24.7628 23.6665 20.809 24.1121C21.4597 24.6709 22.0114 25.7318 22.0114 27.394C22.0114 29.7776 21.9902 32.7271 21.9902 33.3071C21.9902 33.7668 22.3155 34.3256 23.2138 34.1629C30.2869 31.8147 35.0824 25.1023 35.0824 17.2583C35.0824 7.44794 27.1252 0 17.3149 0V0ZM6.87502 24.395C6.78307 24.4657 6.80429 24.6284 6.92453 24.7628C7.0377 24.876 7.20038 24.9255 7.29233 24.8335C7.38428 24.7628 7.36306 24.6001 7.24282 24.4657C7.12965 24.3526 6.96697 24.3031 6.87502 24.395ZM6.11113 23.8221C6.06162 23.914 6.13235 24.0272 6.27381 24.0979C6.38698 24.1687 6.52844 24.1475 6.57795 24.0484C6.62747 23.9565 6.55673 23.8433 6.41527 23.7726C6.27381 23.7301 6.16064 23.7514 6.11113 23.8221ZM8.40281 26.3401C8.28964 26.4321 8.33207 26.6442 8.49476 26.7786C8.65744 26.9413 8.86255 26.9625 8.9545 26.8494C9.04645 26.7574 9.00402 26.5452 8.86256 26.4108C8.70695 26.2482 8.49476 26.2269 8.40281 26.3401ZM7.59648 25.3004C7.48331 25.3711 7.48331 25.555 7.59648 25.7177C7.70964 25.8804 7.90062 25.9511 7.99257 25.8804C8.10574 25.7884 8.10574 25.6045 7.99257 25.4418C7.89354 25.2791 7.70964 25.2084 7.59648 25.3004Z" fill="white"/>
</svg>
