<svg width="519" height="320" viewBox="0 0 519 320" fill="none" xmlns="http://www.w3.org/2000/svg">
<g clip-path="url(#clip0_148_237)">
<path d="M513.411 210.049H152.152C150.67 210.047 149.249 209.457 148.202 208.409C147.154 207.361 146.564 205.939 146.563 204.457V5.59197C146.564 4.1094 147.154 2.68803 148.202 1.6397C149.249 0.591364 150.67 0.00167559 152.152 0H513.411C514.893 0.00167857 516.313 0.591373 517.361 1.63971C518.409 2.68804 518.998 4.1094 519 5.59197V204.457C518.998 205.939 518.409 207.361 517.361 208.409C516.313 209.457 514.893 210.047 513.411 210.049Z" fill="#E6E6E6"/>
<path d="M505.789 202.423H159.773C158.292 202.422 156.871 201.832 155.823 200.784C154.775 199.735 154.186 198.314 154.184 196.831V13.2173C154.186 11.7348 154.775 10.3134 155.823 9.26506C156.871 8.21673 158.291 7.62704 159.773 7.62537H505.789C507.271 7.62705 508.692 8.21674 509.74 9.26507C510.787 10.3134 511.377 11.7348 511.378 13.2173V196.831C511.377 198.314 510.787 199.735 509.74 200.784C508.692 201.832 507.271 202.422 505.789 202.423V202.423Z" fill="white"/>
<path d="M256.597 120.919H191.499C190.78 120.918 190.091 120.631 189.582 120.123C189.074 119.614 188.788 118.924 188.787 118.205V50.3736C188.788 49.6541 189.074 48.9643 189.582 48.4556C190.091 47.9468 190.78 47.6606 191.499 47.6598H256.597C257.316 47.6606 258.005 47.9468 258.514 48.4556C259.022 48.9643 259.308 49.6541 259.309 50.3736V118.205C259.308 118.924 259.022 119.614 258.514 120.123C258.005 120.631 257.316 120.918 256.597 120.919V120.919ZM191.499 48.7453C191.068 48.7458 190.654 48.9175 190.349 49.2227C190.044 49.528 189.872 49.9419 189.872 50.3736V118.205C189.872 118.636 190.044 119.05 190.349 119.356C190.654 119.661 191.068 119.833 191.499 119.833H256.597C257.028 119.833 257.442 119.661 257.747 119.356C258.052 119.05 258.224 118.636 258.224 118.205V50.3736C258.224 49.9419 258.052 49.528 257.747 49.2227C257.442 48.9175 257.028 48.7458 256.597 48.7453H191.499Z" fill="#3F3D56"/>
<path d="M365.33 120.919H300.233C299.514 120.918 298.824 120.631 298.316 120.123C297.807 119.614 297.521 118.924 297.52 118.205V50.3736C297.521 49.6541 297.807 48.9643 298.316 48.4556C298.824 47.9468 299.514 47.6606 300.233 47.6598H365.33C366.049 47.6606 366.739 47.9468 367.247 48.4556C367.756 48.9643 368.042 49.6541 368.042 50.3736V118.205C368.042 118.924 367.756 119.614 367.247 120.123C366.739 120.631 366.049 120.918 365.33 120.919ZM300.233 48.7453C299.801 48.7458 299.388 48.9175 299.082 49.2228C298.777 49.528 298.606 49.9419 298.605 50.3736V118.205C298.606 118.636 298.777 119.05 299.082 119.356C299.388 119.661 299.801 119.833 300.233 119.833H365.33C365.762 119.833 366.175 119.661 366.48 119.356C366.785 119.05 366.957 118.636 366.957 118.205V50.3736C366.957 49.9419 366.785 49.528 366.48 49.2228C366.175 48.9175 365.762 48.7458 365.33 48.7453H300.233Z" fill="#3F3D56"/>
<path d="M474.063 120.919H408.966C408.247 120.918 407.558 120.631 407.049 120.123C406.541 119.614 406.255 118.924 406.254 118.205V50.3736C406.255 49.6541 406.541 48.9643 407.049 48.4556C407.558 47.9468 408.247 47.6606 408.966 47.6598H474.063C474.783 47.6606 475.472 47.9468 475.981 48.4556C476.489 48.9643 476.775 49.6541 476.776 50.3736V118.205C476.775 118.924 476.489 119.614 475.981 120.123C475.472 120.631 474.783 120.918 474.063 120.919V120.919ZM408.966 48.7453C408.535 48.7458 408.121 48.9175 407.816 49.2227C407.511 49.528 407.339 49.9419 407.339 50.3736V118.205C407.339 118.636 407.511 119.05 407.816 119.356C408.121 119.661 408.535 119.833 408.966 119.833H474.063C474.495 119.833 474.909 119.661 475.214 119.356C475.519 119.05 475.69 118.636 475.691 118.205V50.3736C475.69 49.9419 475.519 49.528 475.214 49.2227C474.909 48.9175 474.495 48.7458 474.063 48.7453H408.966Z" fill="#3F3D56"/>
<path d="M211.478 162.389C211.719 162.389 211.959 162.342 212.182 162.249C212.406 162.157 212.609 162.021 212.78 161.85C212.951 161.679 213.087 161.476 213.179 161.252C213.272 161.029 213.32 160.789 213.32 160.547C213.32 160.305 213.272 160.066 213.18 159.842C213.087 159.619 212.952 159.416 212.781 159.244C212.61 159.073 212.407 158.937 212.184 158.845C211.96 158.752 211.721 158.704 211.479 158.704H194.954C194.466 158.704 193.997 158.898 193.652 159.244C193.307 159.589 193.113 160.058 193.113 160.547C193.113 161.035 193.307 161.504 193.652 161.849C193.997 162.195 194.466 162.389 194.954 162.389H211.478Z" fill="#E6E6E6"/>
<path d="M253.142 151.534C253.63 151.535 254.099 151.342 254.445 150.997C254.791 150.652 254.986 150.184 254.987 149.695C254.987 149.206 254.794 148.737 254.45 148.391C254.105 148.045 253.637 147.85 253.149 147.849H194.954C194.466 147.85 193.999 148.044 193.654 148.39C193.309 148.735 193.116 149.203 193.116 149.692C193.116 150.18 193.309 150.648 193.654 150.993C193.999 151.339 194.466 151.533 194.954 151.534H253.142Z" fill="#E6E6E6"/>
<path d="M320.211 162.389C320.699 162.389 321.168 162.195 321.513 161.849C321.858 161.504 322.052 161.035 322.052 160.547C322.052 160.058 321.858 159.589 321.513 159.244C321.168 158.898 320.699 158.704 320.211 158.704H303.688C303.199 158.704 302.731 158.898 302.385 159.244C302.04 159.589 301.846 160.058 301.846 160.547C301.846 161.035 302.04 161.504 302.385 161.849C302.731 162.195 303.199 162.389 303.688 162.389H320.211Z" fill="#E6E6E6"/>
<path d="M361.875 151.534C362.363 151.533 362.831 151.339 363.175 150.993C363.52 150.648 363.713 150.18 363.713 149.692C363.713 149.203 363.52 148.735 363.175 148.39C362.831 148.044 362.363 147.85 361.875 147.849H303.688C303.2 147.85 302.732 148.044 302.388 148.39C302.043 148.735 301.849 149.203 301.849 149.692C301.849 150.18 302.043 150.648 302.388 150.993C302.732 151.339 303.2 151.533 303.688 151.534H361.875Z" fill="#E6E6E6"/>
<path d="M428.944 162.389C429.433 162.389 429.901 162.195 430.247 161.849C430.592 161.504 430.786 161.035 430.786 160.547C430.786 160.058 430.592 159.589 430.247 159.244C429.901 158.898 429.433 158.704 428.944 158.704H412.421C412.179 158.704 411.94 158.752 411.716 158.844C411.493 158.937 411.29 159.072 411.119 159.243C410.948 159.414 410.812 159.617 410.719 159.841C410.627 160.064 410.579 160.304 410.579 160.546C410.579 160.788 410.626 161.027 410.719 161.251C410.811 161.475 410.947 161.678 411.118 161.849C411.288 162.02 411.491 162.156 411.715 162.249C411.938 162.341 412.178 162.389 412.419 162.389H428.944Z" fill="#E6E6E6"/>
<path d="M470.609 151.534C471.096 151.533 471.564 151.339 471.909 150.993C472.253 150.648 472.447 150.18 472.447 149.692C472.447 149.203 472.253 148.735 471.909 148.39C471.564 148.044 471.096 147.85 470.609 147.849H412.421C412.179 147.849 411.94 147.896 411.716 147.988C411.492 148.08 411.289 148.216 411.118 148.386C410.946 148.557 410.81 148.76 410.718 148.983C410.625 149.207 410.576 149.446 410.576 149.688C410.576 149.93 410.623 150.17 410.715 150.393C410.807 150.617 410.942 150.821 411.113 150.992C411.284 151.163 411.486 151.299 411.71 151.392C411.933 151.485 412.172 151.534 412.414 151.534H470.609Z" fill="#E6E6E6"/>
<path d="M253.142 140.858C253.63 140.859 254.099 140.665 254.444 140.319C254.79 139.974 254.984 139.505 254.984 139.017C254.984 138.528 254.79 138.059 254.445 137.714C254.1 137.368 253.632 137.174 253.143 137.173H194.954C194.466 137.173 193.997 137.368 193.652 137.713C193.307 138.059 193.113 138.527 193.113 139.016C193.113 139.505 193.307 139.973 193.652 140.319C193.997 140.664 194.466 140.858 194.954 140.858H253.142Z" fill="#6C63FF"/>
<path d="M361.875 140.858C362.364 140.858 362.832 140.664 363.177 140.319C363.523 139.973 363.717 139.505 363.717 139.016C363.717 138.527 363.523 138.059 363.177 137.713C362.832 137.368 362.364 137.173 361.875 137.173H303.688C303.199 137.173 302.731 137.368 302.385 137.713C302.04 138.059 301.846 138.527 301.846 139.016C301.846 139.505 302.04 139.973 302.385 140.319C302.731 140.664 303.199 140.858 303.688 140.858H361.875Z" fill="#6C63FF"/>
<path d="M470.609 140.858C471.097 140.858 471.565 140.664 471.911 140.319C472.256 139.973 472.45 139.505 472.45 139.016C472.45 138.527 472.256 138.059 471.911 137.713C471.565 137.368 471.097 137.173 470.609 137.173H412.421C411.933 137.173 411.464 137.367 411.119 137.713C410.773 138.058 410.579 138.527 410.579 139.015C410.579 139.504 410.772 139.972 411.118 140.318C411.463 140.664 411.931 140.858 412.419 140.858H470.609Z" fill="#6C63FF"/>
<path d="M242.726 107.773C243.214 107.772 243.681 107.577 244.026 107.232C244.37 106.887 244.564 106.418 244.564 105.93C244.564 105.442 244.37 104.974 244.026 104.629C243.681 104.283 243.214 104.089 242.726 104.088H205.37C205.128 104.087 204.889 104.135 204.665 104.227C204.442 104.319 204.238 104.454 204.067 104.625C203.896 104.796 203.76 104.999 203.667 105.222C203.574 105.445 203.526 105.685 203.525 105.927C203.525 106.169 203.572 106.409 203.664 106.632C203.756 106.856 203.892 107.059 204.062 107.231C204.233 107.402 204.436 107.538 204.659 107.631C204.882 107.724 205.122 107.772 205.363 107.773H242.726Z" fill="#E6E6E6"/>
<path d="M242.726 96.9176C243.214 96.9168 243.681 96.7223 244.026 96.3768C244.37 96.0314 244.564 95.5633 244.564 95.0752C244.564 94.5871 244.37 94.119 244.026 93.7736C243.681 93.4281 243.214 93.2336 242.726 93.2328H205.37C205.128 93.2323 204.889 93.2796 204.665 93.3718C204.442 93.4639 204.238 93.5993 204.067 93.77C203.896 93.9408 203.76 94.1437 203.667 94.367C203.574 94.5904 203.526 94.8299 203.525 95.0718C203.525 95.3138 203.572 95.5535 203.664 95.7772C203.756 96.0009 203.892 96.2042 204.062 96.3756C204.233 96.547 204.436 96.6831 204.659 96.7761C204.882 96.8691 205.122 96.9172 205.363 96.9176H242.726Z" fill="#E6E6E6"/>
<path d="M224.048 84.1903C230.502 84.1903 235.734 78.9555 235.734 72.498C235.734 66.0405 230.502 60.8057 224.048 60.8057C217.594 60.8057 212.362 66.0405 212.362 72.498C212.362 78.9555 217.594 84.1903 224.048 84.1903Z" fill="#6C63FF"/>
<path d="M351.459 107.773C351.947 107.772 352.415 107.577 352.759 107.232C353.104 106.887 353.297 106.418 353.297 105.93C353.297 105.442 353.104 104.974 352.759 104.629C352.415 104.283 351.947 104.089 351.459 104.088H314.104C313.616 104.089 313.148 104.283 312.804 104.629C312.459 104.974 312.265 105.442 312.265 105.93C312.265 106.418 312.459 106.887 312.804 107.232C313.148 107.577 313.616 107.772 314.104 107.773H351.459Z" fill="#E6E6E6"/>
<path d="M351.459 96.9176C351.947 96.9168 352.415 96.7223 352.759 96.3768C353.104 96.0314 353.297 95.5633 353.297 95.0752C353.297 94.5871 353.104 94.119 352.759 93.7736C352.415 93.4281 351.947 93.2336 351.459 93.2328H314.104C313.616 93.2336 313.148 93.4281 312.804 93.7736C312.459 94.119 312.265 94.5871 312.265 95.0752C312.265 95.5633 312.459 96.0314 312.804 96.3768C313.148 96.7223 313.616 96.9168 314.104 96.9176H351.459Z" fill="#E6E6E6"/>
<path d="M332.781 84.1903C339.235 84.1903 344.468 78.9555 344.468 72.498C344.468 66.0405 339.235 60.8057 332.781 60.8057C326.327 60.8057 321.095 66.0405 321.095 72.498C321.095 78.9555 326.327 84.1903 332.781 84.1903Z" fill="#6C63FF"/>
<path d="M460.193 107.773C460.434 107.773 460.674 107.726 460.897 107.634C461.121 107.542 461.324 107.406 461.496 107.235C461.667 107.065 461.803 106.862 461.896 106.638C461.989 106.415 462.037 106.176 462.037 105.934C462.038 105.692 461.991 105.452 461.898 105.228C461.806 105.005 461.671 104.801 461.5 104.63C461.33 104.459 461.127 104.322 460.904 104.229C460.68 104.136 460.441 104.088 460.199 104.088H422.837C422.349 104.089 421.882 104.283 421.537 104.629C421.192 104.974 420.999 105.442 420.999 105.93C420.999 106.418 421.192 106.887 421.537 107.232C421.882 107.577 422.349 107.772 422.837 107.773H460.193Z" fill="#E6E6E6"/>
<path d="M460.193 96.9176C460.434 96.9181 460.674 96.8708 460.897 96.7787C461.121 96.6865 461.324 96.5511 461.496 96.3804C461.667 96.2096 461.803 96.0067 461.896 95.7834C461.989 95.56 462.037 95.3205 462.037 95.0786C462.038 94.8366 461.991 94.597 461.898 94.3733C461.806 94.1496 461.671 93.9462 461.5 93.7748C461.33 93.6034 461.127 93.4673 460.904 93.3743C460.68 93.2813 460.441 93.2332 460.199 93.2328H422.837C422.349 93.2336 421.882 93.4281 421.537 93.7736C421.192 94.119 420.999 94.5871 420.999 95.0752C420.999 95.5633 421.192 96.0314 421.537 96.3768C421.882 96.7223 422.349 96.9168 422.837 96.9176H460.193Z" fill="#E6E6E6"/>
<path d="M441.515 84.1903C447.969 84.1903 453.201 78.9555 453.201 72.498C453.201 66.0405 447.969 60.8057 441.515 60.8057C435.061 60.8057 429.828 66.0405 429.828 72.498C429.828 78.9555 435.061 84.1903 441.515 84.1903Z" fill="#6C63FF"/>
<path d="M39.138 312.757H46.052L49.341 286.075L39.1369 286.076L39.138 312.757Z" fill="#FFB6B6"/>
<path d="M37.3743 310.499L50.9902 310.498H50.9908C53.2921 310.498 55.4991 311.413 57.1263 313.041C58.7536 314.669 59.6679 316.877 59.668 319.18V319.462L37.3747 319.463L37.3743 310.499Z" fill="#2F2E41"/>
<path d="M62.8239 312.757H69.7379L73.0268 286.075L62.8228 286.076L62.8239 312.757Z" fill="#FFB6B6"/>
<path d="M61.0601 310.499L74.676 310.498H74.6766C76.9779 310.498 79.1849 311.413 80.8121 313.041C82.4394 314.669 83.3537 316.877 83.3538 319.18V319.462L61.0605 319.463L61.0601 310.499Z" fill="#2F2E41"/>
<path d="M89.0965 196.523L72.2068 300.898L60.9279 300.334L61.2076 204.495L89.0965 196.523Z" fill="#2F2E41"/>
<path d="M43.5636 164.633L84.5433 165.203L89.0966 196.523L61.2076 209.62L49.085 298.077L38.37 297.513L34.457 187.981L43.5636 164.633Z" fill="#2F2E41"/>
<path d="M68.0376 83.7707C74.9531 83.7707 80.5592 78.1617 80.5592 71.2427C80.5592 64.3237 74.9531 58.7147 68.0376 58.7147C61.1221 58.7147 55.5161 64.3237 55.5161 71.2427C55.5161 78.1617 61.1221 83.7707 68.0376 83.7707Z" fill="#FFB9B9"/>
<path d="M73.8986 91.0016L81.1285 100.285L77.7132 171.466L50.9629 170.897L46.4095 108.827L52.1009 92.8822L54.1605 89.3088L73.8986 91.0016Z" fill="#E4E4E4"/>
<path d="M86.2508 127.049L92.5116 150.966L86.2508 174.883L96.4957 188.55L105.602 145.272C105.602 145.272 98.7723 109.966 98.2032 105.979C97.634 101.993 96.4957 101.424 96.4957 101.424L91.9424 101.993L86.2508 127.049Z" fill="#2F2E41"/>
<path d="M40.7182 136.16L36.7339 143.564L35.5953 156.092L37.872 170.328L29.9039 183.425L21.9359 147.55L30.473 101.424H33.8882L40.7182 136.16Z" fill="#2F2E41"/>
<path d="M57.2087 74.4877L56.9121 79.5521C56.9121 79.5521 53.2394 71.2427 52.6703 62.7009C52.1011 54.1591 61.7769 52.4508 67.4685 51.8813C73.1601 51.3118 82.8359 55.298 82.8359 59.8537C82.8359 64.4093 72.5909 63.2704 68.6068 62.1315C64.6227 60.9926 62.9152 70.6733 62.9152 70.6733L60.6385 71.2428L57.2087 74.4877Z" fill="#2F2E41"/>
<path d="M87.9583 135.022L85.6816 156.661L90.2349 169.758L93.0807 182.286C93.0807 182.286 93.0807 194.245 81.6975 194.814C70.3143 195.384 37.3029 194.245 37.3029 194.245C37.3029 194.245 32.7496 193.675 28.7655 184.564C24.7813 175.453 36.7337 166.911 36.7337 166.911L40.1487 154.953L39.0104 140.147L31.0421 101.424L54.6623 89.1805L60.6385 147.55L73.4446 90.8889L77.7133 94.0209L95.9265 101.424L87.9583 135.022Z" fill="#2F2E41"/>
<path d="M145.351 320H0V318.812H145.566L145.351 320Z" fill="#3F3D56"/>
</g>
<defs>
<clipPath id="clip0_148_237">
<rect width="519" height="320" fill="white"/>
</clipPath>
</defs>
</svg>
