<svg width="509" height="260" viewBox="0 0 509 260" fill="none" xmlns="http://www.w3.org/2000/svg">
<g clip-path="url(#clip0_148_143)">
<path d="M486.407 143.742L484.813 156.43L480.855 187.945H401.357C401.978 180.881 402.827 170.715 403.733 159.739C403.823 158.643 403.916 157.54 404.006 156.43C406.279 128.841 408.767 97.6216 408.767 97.6216L419.218 99.5673L439.496 103.335L447.759 104.87L469.886 108.987C480.918 111.036 488.506 126.999 486.407 143.742V143.742Z" fill="#F2F2F2"/>
<path d="M426.274 46.5686L436.05 63.6649L417.26 76.9722L409.245 55.9577L426.274 46.5686Z" fill="#FFB6B6"/>
<path d="M413.828 62.7422C427.204 62.7422 438.047 51.9062 438.047 38.5394C438.047 25.1726 427.204 14.3367 413.828 14.3367C400.452 14.3367 389.609 25.1726 389.609 38.5394C389.609 51.9062 400.452 62.7422 413.828 62.7422Z" fill="#FFB6B6"/>
<path d="M412.089 43.9502C410.166 41.0254 410.921 39.4956 409.311 38.4207C409.311 38.4207 408.663 37.9881 404.026 37.7415C402.988 30.2749 401.692 29.3695 401.692 29.3694C400.199 28.3259 397.982 28.665 396.603 29.3032C393.687 30.6531 394.025 33.5691 392.061 34.1271C389.349 34.8979 384.414 30.5524 383.927 25.5778C383.531 21.5198 386.147 17.5786 387.185 17.7871C388.213 17.9938 390.677 14.8512 392.007 14.8997C392.915 14.9328 396.626 13.3209 397.624 13.4469C398.715 13.5845 402.309 15.4592 402.459 15.0309C403.5 12.0546 403.194 11.2288 404.077 10.3773C405.643 8.86849 408.203 9.91918 412.22 10.4833C420.484 11.6438 421.927 8.92058 426.162 10.7664C428.302 11.6988 430.092 14.2135 433.585 19.2047C438.47 26.1849 440.913 29.675 440.929 33.7457C440.945 37.8971 438.933 37.6336 438.049 43.7794C437.066 50.6207 439.156 53.7489 436.873 55.9715C435.108 57.6892 431.521 58.097 429.637 56.5894C426.411 54.0082 430.633 47.7799 427.063 43.2295C424.871 40.4362 420.463 39.1934 418.444 40.5741C416.162 42.1353 417.419 46.7177 415.814 47.1522C414.439 47.5243 412.424 44.4599 412.089 43.9502L412.089 43.9502Z" fill="#2F2E41"/>
<path d="M468.506 139.274C467.83 150.817 465.147 154.461 464.207 168.093C464.002 171.085 463.879 174.559 463.879 178.702C463.879 179.758 463.885 180.78 463.885 181.777C463.885 183.901 463.844 185.909 463.597 187.945C463.409 189.57 463.086 191.207 462.552 192.933H410.39C410.384 192.921 410.384 192.909 410.378 192.897C410.073 191.571 409.879 190.304 409.732 189.089C409.685 188.702 409.644 188.32 409.609 187.945C409.562 187.505 409.521 187.07 409.48 186.642C409.321 184.934 409.163 183.321 408.787 181.777C408.282 179.647 407.366 177.64 405.486 175.704C404.717 174.911 403.948 174.295 403.197 173.756C403.05 173.656 402.909 173.556 402.762 173.456C400.683 172.03 398.716 171.003 397.013 168.093C396.984 168.052 396.96 168.005 396.937 167.964C396.643 167.453 395.88 166.115 395.328 164.331C394.746 162.477 394.394 160.147 395.028 157.765C396.538 152.12 402.128 151.556 406.696 145.852C407.189 145.236 407.677 144.555 408.141 143.798C410.208 140.442 410.765 137.484 411.423 133.969C411.529 133.4 411.623 132.837 411.699 132.291C411.758 131.88 411.811 131.475 411.852 131.076C412.216 127.725 412.04 124.838 411.611 122.256C410.214 113.8 406.091 108.566 409.004 100.978C409.92 98.5959 411.218 96.806 412.527 95.2744C415.299 92.0292 418.147 89.9226 417.654 85.7329C417.154 81.5077 413.948 80.9266 413.59 77.2355C413.408 75.3696 414.019 73.4037 415.164 71.4731V71.4673C418.828 65.2527 427.977 59.5313 433.79 59.7132C434.865 59.7427 435.816 59.9831 436.608 60.4467C439.48 62.1367 438.282 65.8278 442.681 71.0037C445.951 74.8473 449.65 76.3848 451.054 77.1123C456.615 80.0114 461.137 88.5613 464.207 99.4936C464.231 99.5759 464.254 99.6578 464.278 99.7461C466.175 106.594 467.514 114.37 468.177 122.256C468.459 125.595 468.624 128.952 468.658 132.273C468.688 134.926 468.629 137.226 468.506 139.274V139.274Z" fill="#6C63FF"/>
<path d="M429.445 178.82L428.382 181.777L427.713 183.631L426.162 187.945L424.365 192.933H412.815L414.753 187.945L415.651 185.621L417.143 181.777L419.644 175.322L429.445 178.82Z" fill="#FFB6B6"/>
<path d="M464.39 98.484C464.36 98.8657 464.319 99.288 464.278 99.7459C463.82 104.405 462.739 112.744 461.16 122.256C460.326 127.273 459.351 132.619 458.253 137.93C455.893 149.39 452.957 160.675 449.639 168.092C449.046 169.431 448.435 170.639 447.812 171.707C447.337 172.523 446.838 173.327 446.315 174.119C444.624 176.719 442.727 179.184 440.76 181.484C440.684 181.584 440.596 181.678 440.508 181.777C440.191 182.153 439.862 182.522 439.533 182.892C437.924 184.705 436.28 186.395 434.689 187.945C432.751 189.834 430.883 191.507 429.21 192.932H410.454L410.378 192.897L407.677 191.7C407.677 191.7 408.446 190.796 409.732 189.089C409.996 188.743 410.278 188.361 410.584 187.945C410.959 187.434 411.365 186.871 411.799 186.26C412.703 184.981 413.731 183.479 414.835 181.777C416.972 178.485 419.409 174.436 421.87 169.747C422.152 169.202 422.439 168.65 422.727 168.092C422.733 168.075 422.745 168.057 422.751 168.04C423.238 167.089 423.72 166.109 424.201 165.111C428.282 156.626 429.451 149.584 429.786 147.302C430.255 144.074 430.907 139.561 430.731 134.597C430.613 131.323 430.138 127.86 429.005 124.421V124.416C428.769 123.694 428.505 122.972 428.206 122.256C427.671 120.971 427.037 119.703 426.285 118.454C422.968 112.949 420.273 112.72 418.129 106.723C417.495 104.945 416.056 100.931 416.497 96.6943V96.6886C416.55 96.1663 416.638 95.6382 416.755 95.1098V95.1041C416.784 94.9574 416.826 94.8049 416.867 94.6582C417.201 93.3614 417.754 92.076 418.593 90.8554C420.231 88.4849 422.468 87.0763 424.471 86.2373L424.477 86.2313C426.79 85.2692 428.787 85.0637 429.175 85.0285C437.754 84.2657 444.407 91.4717 448.042 95.4092C449.445 96.929 450.731 98.2026 451.906 99.241C461.048 107.398 463.556 102.187 464.207 99.4935C464.307 99.0769 464.36 98.719 464.39 98.484V98.484Z" fill="#6C63FF"/>
<path d="M464.419 98.1792C464.419 98.2084 464.413 98.3081 464.39 98.4726C464.401 98.3844 464.408 98.2964 464.413 98.2142C464.413 98.1967 464.413 98.1849 464.419 98.1792V98.1792Z" fill="#6C63FF"/>
<path d="M417.783 222.003H103.009C100.084 222.003 97.7003 224.38 97.7003 227.303C97.7003 230.231 100.084 232.607 103.009 232.607H417.783C420.707 232.607 423.085 230.231 423.085 227.303C423.085 224.38 420.707 222.003 417.783 222.003Z" fill="#E6E6E6"/>
<path d="M347.928 249.396H172.857C169.933 249.396 167.555 251.773 167.555 254.695C167.555 257.617 169.933 260 172.857 260H347.928C350.853 260 353.237 257.617 353.237 254.695C353.237 251.773 350.853 249.396 347.928 249.396V249.396Z" fill="#E6E6E6"/>
<path d="M138.035 47.6936L157.873 39.3503L166.382 56.782L145.535 65.2853L138.035 47.6936Z" fill="#FFB6B6"/>
<path opacity="0.1" d="M138.035 47.6936L157.873 39.3503L166.382 56.782L145.535 65.2853L138.035 47.6936Z" fill="black"/>
<path d="M140.855 41.051L160.426 63.5846C160.426 63.5846 146.812 106.526 133.197 110.353C119.583 114.179 94.4817 132.886 94.4817 132.886L62.9985 112.478L78.3146 89.9448C78.3146 89.9448 115.329 39.3503 125.114 39.3503C134.899 39.3503 140.855 41.051 140.855 41.051V41.051Z" fill="#6C63FF"/>
<path d="M114.414 187.945H68.8569L65.9766 184.097L54.2173 168.387L51.5114 164.774C51.5114 164.774 41.3007 146.066 43.4279 129.06C45.5552 112.053 67.6784 108.227 67.6784 108.227H68.5889L95.6729 132.01L94.0562 154.144L102.633 168.387L114.414 187.945V187.945Z" fill="#2F2E41"/>
<path d="M78.187 187.945H65.9767V169.875L78.187 187.945Z" fill="#2F2E41"/>
<path d="M341.548 160.513L340.029 168.387L336.259 187.945H260.534C261.125 183.561 261.934 177.252 262.797 170.441C262.882 169.761 262.972 169.076 263.057 168.387C265.222 151.266 267.592 131.891 267.592 131.891L277.548 133.099L296.863 135.437L304.734 136.39L325.81 138.945C336.319 140.216 343.547 150.122 341.548 160.513H341.548Z" fill="#F2F2F2"/>
<path d="M448.714 187.945H407.641C408.266 187.209 408.619 186.784 408.619 186.784L420.932 184.752L446.301 180.568C446.301 180.568 447.459 183.557 448.714 187.945V187.945Z" fill="#2F2E41"/>
<path d="M274.494 56.1973L292.356 81.441L261.199 82.3708L257.855 58.6477L274.494 56.1973Z" fill="#A0616A"/>
<path opacity="0.1" d="M274.494 56.1973L292.356 81.441L261.199 82.3708L257.855 58.6477L274.494 56.1973Z" fill="black"/>
<path d="M186.408 108.501C184.116 101.894 178.847 97.7197 174.639 99.178C170.432 100.636 168.88 107.174 171.174 113.783C172.054 116.435 173.557 118.839 175.557 120.792L185.621 148.664L198.609 143.665L187.308 116.719C187.669 113.947 187.36 111.129 186.408 108.501V108.501Z" fill="#A0616A"/>
<path d="M307.315 95.6377L307.291 121.364L304.895 130.867L299.969 150.411L296.382 168.387L293.71 181.78L292.757 186.563C292.038 187.043 291.323 187.503 290.609 187.945H228.379C224.843 185.823 222.865 184.174 222.865 184.174C222.865 184.174 223.843 183.255 224.962 181.78C226.851 179.289 229.136 175.207 227.736 171.308C227.443 170.492 227.366 169.497 227.455 168.387C228.025 161.066 235.709 148.685 235.709 148.685L234.118 130.31L233.42 122.257L238.34 82.9931L254.375 73.6778L257.143 73.4101L284.47 71.9348L295.764 72.5853L296.279 72.7256L307.315 95.6377V95.6377Z" fill="#CCCCCC"/>
<path d="M308.529 187.945H294.914L294.314 181.78L294.302 181.657L298.156 181.393L308.184 180.708L308.358 184.399L308.495 187.231L308.529 187.945Z" fill="#FFB6B6"/>
<path d="M311.88 101.858L317.599 135.39L312.932 168.387L312.205 173.523L310.92 182.592L310.524 185.381L310.537 185.683L310.635 187.945H294.468L293.872 181.78L293.821 181.227L292.604 168.6L292.583 168.387L290 141.611L295.063 122.257L295.438 120.833V120.829L297.64 87.6913L295.934 72.632L295.917 72.4917C295.951 72.513 295.981 72.5343 296.015 72.5555C296.105 72.6108 296.194 72.666 296.279 72.7256C306.217 79.0265 312.14 90.0808 311.88 101.858V101.858Z" fill="#CCCCCC"/>
<path d="M244.131 89.4187L237.914 82.9927C237.914 82.9927 224.606 88.9885 223.942 92.315C223.279 95.6414 199.781 144.498 199.781 144.498L189.557 117.212L176.25 126.091C176.25 126.091 186.928 168.454 196.914 170.443C206.9 172.432 240.368 120.302 240.368 120.302L244.131 89.4187H244.131Z" fill="#CCCCCC"/>
<path d="M496.569 168.093H12.4255C5.57277 168.093 0 173.667 0 180.515C0 187.364 5.57276 192.933 12.4255 192.933H496.569C503.421 192.933 509 187.364 509 180.515C509 173.667 503.421 168.093 496.569 168.093Z" fill="#E6E6E6"/>
<path d="M304.482 130.238L303.54 174.134C303.449 178.383 299.976 181.78 295.723 181.78H214.922C210.769 181.78 207.341 178.536 207.114 174.393L204.713 130.497C204.468 126.021 208.034 122.257 212.52 122.257H296.664C301.048 122.257 304.576 125.858 304.482 130.238V130.238Z" fill="#3F3D56"/>
<path d="M174.04 58.2893C184.717 58.2893 193.372 49.6399 193.372 38.9702C193.372 28.3006 184.717 19.6511 174.04 19.6511C163.364 19.6511 154.708 28.3006 154.708 38.9702C154.708 49.6399 163.364 58.2893 174.04 58.2893Z" fill="#FFB6B6"/>
<path d="M141.706 89.5195L143.834 112.478L158.299 170.726L145.802 175.103L124.688 111.628L121.772 86.1182L141.706 89.5195Z" fill="#FFB6B6"/>
<path d="M135.952 130.238L135.011 174.134C134.92 178.383 131.447 181.78 127.194 181.78H46.3921C42.2397 181.78 38.8115 178.536 38.5848 174.393L36.1835 130.497C35.9387 126.021 39.5048 122.257 43.9908 122.257H128.135C132.519 122.257 136.046 125.858 135.952 130.238V130.238Z" fill="#3F3D56"/>
<path d="M160.602 182.077C169.034 182.077 175.87 179.055 175.87 175.328C175.87 171.601 169.034 168.58 160.602 168.58C152.17 168.58 145.335 171.601 145.335 175.328C145.335 179.055 152.17 182.077 160.602 182.077Z" fill="#FFB6B6"/>
<path d="M111.712 93.0296L120.434 46.578C120.434 46.578 144.684 43.1767 145.535 51.2548C146.386 59.3329 144.927 98.8117 144.927 98.8117L111.712 93.0296V93.0296Z" fill="#6C63FF"/>
<path d="M166.236 42.008C166.236 42.008 178.195 37.7428 183.24 35.4479C188.284 33.153 198.306 49.1597 198.529 40.706C198.752 32.2524 195.289 28.7073 195.289 28.7073C195.289 28.7073 194.424 10.2136 175.78 12.5258C175.78 12.5258 179.881 3.27323 166.419 1.84249C152.958 0.411753 132.015 32.8975 133.89 37.7523C135.766 42.6071 138.014 46.6208 132.693 51.8116C127.372 57.0025 117.408 86.2984 124.989 94.1818C132.57 102.065 133.068 105.486 127.873 110.39C122.679 115.295 110.401 125.959 123.676 127.81C136.951 129.661 122.462 128.279 132.359 119.579C142.255 110.88 156.697 111.235 151.305 97.2775C145.912 83.3199 155.281 63.3188 154.109 60.2846C152.936 57.2503 156.735 37.9826 156.735 37.9826C156.735 37.9826 165.575 36.6846 166.236 42.008V42.008Z" fill="#2F2E41"/>
<path d="M264.944 65.3344C276.567 65.3344 285.988 55.9189 285.988 44.3042C285.988 32.6895 276.567 23.2739 264.944 23.2739C253.322 23.2739 243.9 32.6895 243.9 44.3042C243.9 55.9189 253.322 65.3344 264.944 65.3344Z" fill="#A0616A"/>
<path d="M266.624 16.0304C266.015 16.3856 265.199 15.8481 265.004 15.1711C264.809 14.494 265.036 13.7751 265.262 13.1075L266.397 9.74673C267.202 7.36318 268.057 4.89633 269.801 3.08214C272.433 0.343906 276.617 -0.352687 280.383 0.15197C285.219 0.800052 289.991 3.41705 292.239 7.74461C294.488 12.0722 293.531 18.1107 289.467 20.8106C295.258 27.4436 297.277 34.8359 296.958 43.6329C296.64 52.4298 287.047 60.5259 280.791 66.723C279.394 65.8767 278.124 61.9106 278.892 60.4697C279.66 59.0289 278.559 57.3597 279.511 56.0325C280.462 54.7054 281.258 56.8186 280.296 55.499C279.689 54.6663 282.058 52.7506 281.156 52.2522C276.792 49.8416 275.341 44.4058 272.6 40.2432C269.294 35.2223 263.636 31.8221 257.648 31.258C254.35 30.9473 250.866 31.5101 248.162 33.4238C245.459 35.3374 243.708 38.7571 244.335 42.0081C242.712 40.3606 241.903 37.9462 242.208 35.6539C242.513 33.3617 243.924 31.242 245.922 30.0755C244.707 26.0608 245.748 21.4428 248.568 18.3361C251.387 15.2294 262.825 15.7585 266.942 16.5761L266.624 16.0304V16.0304Z" fill="#2F2E41"/>
<path d="M267.263 31.3799C272.715 31.9681 276.652 36.6877 279.976 41.0463C281.892 43.5584 283.899 46.3327 283.851 49.491C283.802 52.6841 281.666 55.4229 280.645 58.449C278.976 63.3953 280.602 69.2802 284.575 72.6693C280.65 73.4137 276.406 70.4724 275.728 66.5375C274.94 61.9568 278.414 57.5357 278.003 52.9059C277.64 48.8269 274.424 45.6877 271.689 42.6379C268.955 39.5881 266.387 35.541 267.645 31.6438L267.263 31.3799V31.3799Z" fill="#2F2E41"/>
<path d="M348.772 170.751C343.372 173.82 340.579 179.093 342.534 182.527C344.49 185.962 350.452 186.257 355.854 183.185C358.029 181.988 359.885 180.287 361.267 178.226L383.985 164.931L377.514 154.411L355.806 168.634C353.326 168.768 350.914 169.494 348.772 170.751Z" fill="#FFB6B6"/>
<path d="M425.689 73.2589C425.01 72.9901 419.054 70.7358 413.615 73.7121C407.369 77.1311 406.404 84.9358 406.065 87.6733C405.284 93.9968 407.587 95.4142 408.073 101.816C408.982 113.793 411.381 100.13 407.551 105.597C406.225 107.489 392.684 136.814 385.216 142.558C370.693 153.73 361.47 161.597 361.47 161.597L371.999 173.027C371.999 173.027 388.636 168.597 403.342 159.054C418.426 149.266 425.968 144.372 431.804 134.798C432.306 133.974 444.329 113.57 437.872 91.0073C436.399 85.861 433.701 76.4316 425.689 73.2589V73.2589Z" fill="#6C63FF"/>
<path d="M480.058 130.238L479.116 174.134C479.025 178.383 475.552 181.78 471.299 181.78H390.498C386.345 181.78 382.917 178.536 382.69 174.393L380.289 130.497C380.044 126.021 383.61 122.257 388.096 122.257H472.24C476.624 122.257 480.152 125.858 480.058 130.238V130.238Z" fill="#3F3D56"/>
</g>
<defs>
<clipPath id="clip0_148_143">
<rect width="509" height="260" fill="white"/>
</clipPath>
</defs>
</svg>
