<svg width="513" height="505" viewBox="0 0 513 505" fill="none" xmlns="http://www.w3.org/2000/svg">
<path d="M74.9623 322.155C116.363 322.155 149.925 288.586 149.925 247.176C149.925 205.767 116.363 172.198 74.9623 172.198C33.5618 172.198 0 205.767 0 247.176C0 288.586 33.5618 322.155 74.9623 322.155Z" fill="#F2F2F2"/>
<path d="M75.6318 250.302C92.141 250.302 105.524 236.916 105.524 220.403C105.524 203.891 92.141 190.504 75.6318 190.504C59.1226 190.504 45.7393 203.891 45.7393 220.403C45.7393 236.916 59.1226 250.302 75.6318 250.302Z" fill="#2F2E41"/>
<path d="M252.628 149.957C294.028 149.957 327.59 116.388 327.59 74.9783C327.59 33.5689 294.028 0 252.628 0C211.227 0 177.666 33.5689 177.666 74.9783C177.666 116.388 211.227 149.957 252.628 149.957Z" fill="#F2F2F2"/>
<path d="M75.6442 254.23C90.3926 254.23 102.349 242.271 102.349 227.52C102.349 212.768 90.3926 200.81 75.6442 200.81C60.8959 200.81 48.9399 212.768 48.9399 227.52C48.9399 242.271 60.8959 254.23 75.6442 254.23Z" fill="#FFB8B8"/>
<path d="M255.683 82.6264C269.183 82.6264 280.127 71.6802 280.127 58.1774C280.127 44.6745 269.183 33.7283 255.683 33.7283C242.183 33.7283 231.239 44.6745 231.239 58.1774C231.239 71.6802 242.183 82.6264 255.683 82.6264Z" fill="#FFB8B8"/>
<path d="M277.205 42.026C277.205 42.026 283.569 29.8568 269.567 28.7505C269.567 28.7505 257.631 17.9201 245.464 26.7705C245.464 26.7705 238.828 26.7705 235.199 34.282C235.199 34.282 229.979 32.302 228.832 37.6008C228.832 37.6008 225.013 48.6638 228.832 58.6205C232.651 68.5772 233.92 69.6835 233.92 69.6835C233.92 69.6835 231.24 57.3278 246.516 56.2215C261.792 55.1152 275.806 45.5435 277.079 57.7127C278.353 69.882 279.752 64.3847 279.752 64.3847C279.752 64.3847 291.843 47.0044 277.205 42.026Z" fill="#2F2E41"/>
<path d="M130.995 296.443C118.008 311.223 99.7311 320.303 80.1093 321.721C60.4875 323.14 41.095 316.783 26.1182 304.024L32.5478 286.079C34.0008 282.892 36.2938 280.161 39.1809 278.178C42.0679 276.195 45.4401 275.035 48.9359 274.823L53.0263 274.572L62.7799 266.158C62.7799 266.158 89.0603 265.22 88.6704 264.77L104.589 274.347L104.576 274.281L110.834 274.665C114.33 274.876 117.703 276.035 120.59 278.018C123.477 280.001 125.77 282.733 127.222 285.921L130.995 296.443Z" fill="#6C63FF"/>
<path d="M308.588 124.834C295.601 139.614 277.324 148.694 257.702 150.112C238.08 151.531 218.688 145.174 203.711 132.415L210.141 114.47C211.594 111.283 213.887 108.552 216.774 106.569C219.661 104.586 223.033 103.426 226.529 103.214L230.619 102.963L240.373 94.5494C240.373 94.5494 266.653 93.6108 266.263 93.1614L282.182 102.739L282.169 102.672L288.427 103.056C291.923 103.267 295.295 104.426 298.183 106.409C301.07 108.392 303.363 111.124 304.815 114.312L308.588 124.834Z" fill="#6C63FF"/>
<path d="M252.723 321.871C294.123 321.871 327.685 288.302 327.685 246.893C327.685 205.484 294.123 171.915 252.723 171.915C211.322 171.915 177.76 205.484 177.76 246.893C177.76 288.302 211.322 321.871 252.723 321.871Z" fill="#F2F2F2"/>
<path d="M250.654 256.181C263.869 256.181 274.583 245.466 274.583 232.248C274.583 219.029 263.869 208.314 250.654 208.314C237.438 208.314 226.725 219.029 226.725 232.248C226.725 245.466 237.438 256.181 250.654 256.181Z" fill="#FFB6B6"/>
<path d="M308.961 297.059C295.974 311.84 277.696 320.919 258.075 322.337C238.453 323.756 219.06 317.399 204.083 304.64L210.513 286.696C211.966 283.508 214.259 280.777 217.146 278.794C220.033 276.811 223.405 275.651 226.901 275.44L230.992 275.188L240.745 266.774C240.745 266.774 267.026 265.836 266.636 265.386L282.555 274.964L282.541 274.898L288.799 275.281C292.295 275.492 295.668 276.651 298.555 278.634C301.442 280.617 303.735 283.349 305.187 286.537L308.961 297.059Z" fill="#6C63FF"/>
<path d="M275.891 217.404C273.869 210.165 269.275 203.913 262.971 199.822C257.947 196.608 251.678 194.967 245.987 196.667C240.296 198.366 235.584 203.953 235.956 209.989C233.902 209.29 231.566 210.22 230.062 211.809C228.559 213.399 227.75 215.537 227.171 217.665C225.345 224.433 225.466 231.578 227.52 238.28L227.407 239.242C230.184 238.782 232.29 236.4 233.599 233.861C234.909 231.322 235.663 228.505 237.082 226.029C238.502 223.552 240.859 221.342 243.671 221.265L243.423 225.564C245.842 224.318 248.262 223.071 250.681 221.824C250.105 223.201 249.53 224.578 248.954 225.955C251.067 225.071 253.18 224.188 255.293 223.305C255.057 224.629 254.82 225.953 254.584 227.277C256.68 222.507 263.16 220.411 267.568 223.078C270.128 224.627 271.807 227.388 272.691 230.286C273.574 233.185 273.749 236.252 273.918 239.283C277.182 232.464 277.883 224.697 275.891 217.404V217.404Z" fill="#2F2E41"/>
<path d="M74.9623 152.344C116.363 152.344 149.925 118.775 149.925 77.366C149.925 35.9566 116.363 2.3877 74.9623 2.3877C33.5617 2.3877 0 35.9566 0 77.366C0 118.775 33.5617 152.344 74.9623 152.344Z" fill="#F2F2F2"/>
<path d="M73.3125 85.1433C85.8724 85.1433 96.0543 74.9593 96.0543 62.3967C96.0543 49.8341 85.8724 39.6501 73.3125 39.6501C60.7526 39.6501 50.5708 49.8341 50.5708 62.3967C50.5708 74.9593 60.7526 85.1433 73.3125 85.1433Z" fill="#FFB6B6"/>
<path d="M130.236 126.871C117.249 141.651 98.9719 150.73 79.3501 152.149C59.7282 153.567 40.3357 147.211 25.3589 134.452L31.7886 116.507C33.2416 113.32 35.5345 110.588 38.4216 108.605C41.3086 106.622 44.6808 105.463 48.1766 105.251L52.2671 105L62.0206 96.5857C62.0206 96.5857 88.301 95.6472 87.9111 95.1978L103.83 104.775L103.817 104.709L110.075 105.092C113.571 105.303 116.943 106.462 119.831 108.445C122.718 110.428 125.011 113.16 126.463 116.348L130.236 126.871Z" fill="#6C63FF"/>
<path d="M52.649 72.9128C52.6042 72.7884 52.5635 72.6625 52.5193 72.5378C52.4318 72.615 52.3479 72.6946 52.2529 72.7667L52.649 72.9128Z" fill="#2F2E41"/>
<path d="M100.554 54.3044C100.438 51.9964 99.8332 49.7393 98.7809 47.6819C97.7285 45.6245 96.2521 43.8135 94.4491 42.3684C93.1237 41.32 91.5905 40.4347 90.7131 38.9904C90.2126 37.9678 89.7884 36.9098 89.4439 35.8247C87.6981 31.6684 82.7226 29.4595 78.2595 30.0888C73.7965 30.7182 69.934 33.7209 67.3324 37.4024C66.0505 36.788 64.6195 36.554 63.2088 36.7279C61.7981 36.9018 60.4667 37.4764 59.3724 38.3836C58.278 39.2909 57.4665 40.4928 57.0339 41.847C56.6013 43.2013 56.5658 44.6512 56.9315 46.025C54.6203 44.1628 50.8817 45.6524 49.439 48.2466C47.9963 50.8407 48.2253 54.0151 48.6542 56.9524C49.4313 62.2612 50.7257 67.4812 52.5191 72.5379C54.7694 70.5558 54.6312 66.9461 54.3561 63.8947C54.0704 60.7247 54.2416 56.8543 57.013 55.29C59.6907 53.7787 62.9406 55.4379 65.893 56.2961C68.2273 56.9573 70.6771 57.1045 73.0737 56.7274C75.4704 56.3504 77.7568 55.4581 79.7754 54.112C81.3133 53.0711 82.6825 51.7675 84.3404 50.931C85.9983 50.0945 88.1081 49.804 89.6517 50.8365C91.0613 51.7794 91.6345 53.5381 92.1141 55.1649C93.2509 59.0207 94.3877 62.8764 95.5244 66.7321C97.1932 65.1337 98.5043 63.1997 99.3713 61.0576C100.238 58.9154 100.641 56.6138 100.554 54.3044V54.3044Z" fill="#2F2E41"/>
<path d="M103.818 218.153C104.005 216.158 104.091 214.156 104.075 212.153C104.184 208.192 103.458 204.252 101.945 200.59C100.084 196.535 96.7661 193.328 92.6502 191.608C88.5706 189.962 84.0112 189.966 79.9345 191.619C76.2537 189.293 72.1642 187.449 67.8573 187.221C63.5504 186.992 58.9967 188.591 56.3426 192.109C55.7499 193.037 55.0768 193.912 54.3309 194.723C52.1974 196.699 48.9551 196.414 46.1194 196.01C47.3913 197.1 48.6635 198.19 49.936 199.281C48.3964 199.683 46.8567 200.085 45.3168 200.488C47.1136 201.578 48.9103 202.668 50.7068 203.758C45.4908 206.889 43.12 213.724 43.7463 219.931C44.3387 225.808 47.1754 231.182 50.5665 235.959C51.9192 233.103 51.6277 229.687 51.6054 226.471C51.593 225.428 51.6567 224.385 51.7958 223.352C63.256 226.099 75.2305 227.863 87.374 223.499L89.811 217.533C90.153 217.568 90.4952 217.601 90.837 217.638L92.2488 223.504C95.4498 224.813 98.6574 225.957 101.866 224.755C102.022 225.661 102.116 226.586 102.189 227.475C102.464 226.411 102.703 225.34 102.918 224.265C103.343 224.037 103.749 223.778 104.133 223.489C104.211 221.704 104.105 219.916 103.818 218.153Z" fill="#2F2E41"/>
<path d="M437.641 149.957C479.042 149.957 512.604 116.388 512.604 74.9783C512.604 33.5689 479.042 0 437.641 0C396.241 0 362.679 33.5689 362.679 74.9783C362.679 116.388 396.241 149.957 437.641 149.957Z" fill="#F2F2F2"/>
<path d="M438.311 78.1045C454.821 78.1045 468.204 64.7183 468.204 48.2056C468.204 31.6928 454.821 18.3066 438.311 18.3066C421.802 18.3066 408.419 31.6928 408.419 48.2056C408.419 64.7183 421.802 78.1045 438.311 78.1045Z" fill="#2F2E41"/>
<path d="M438.323 82.032C453.072 82.032 465.028 70.0736 465.028 55.3221C465.028 40.5705 453.072 28.6121 438.323 28.6121C423.575 28.6121 411.619 40.5705 411.619 55.3221C411.619 70.0736 423.575 82.032 438.323 82.032Z" fill="#FFB8B8"/>
<path d="M493.675 124.245C480.688 139.025 462.41 148.105 442.789 149.523C423.167 150.942 403.774 144.585 388.797 131.826L395.227 113.881C396.68 110.694 398.973 107.963 401.86 105.98C404.747 103.997 408.119 102.837 411.615 102.625L415.706 102.374L425.459 93.9603C425.459 93.9603 451.74 93.0217 451.35 92.5723L467.269 102.149L467.255 102.083L473.513 102.467C477.009 102.678 480.382 103.837 483.269 105.82C486.156 107.803 488.449 110.535 489.901 113.723L493.675 124.245Z" fill="#6C63FF"/>
<path d="M466.497 45.9545C466.684 43.9603 466.77 41.9579 466.754 39.955C466.863 35.9938 466.138 32.054 464.625 28.3917C462.763 24.3367 459.445 21.1304 455.329 19.41C451.25 17.7642 446.69 17.7682 442.614 19.4211C438.933 17.0952 434.843 15.2513 430.536 15.0229C426.23 14.7945 421.676 16.3927 419.022 19.9107C418.429 20.8393 417.756 21.714 417.01 22.5247C414.877 24.5009 411.634 24.2158 408.799 23.8118C410.07 24.9021 411.343 25.9924 412.615 27.0827C411.076 27.4851 409.536 27.8874 407.996 28.2897C409.793 29.3796 411.589 30.4696 413.386 31.5596C408.17 34.691 405.799 41.5257 406.425 47.7331C407.018 53.61 409.855 58.9841 413.246 63.7607C414.598 60.9054 414.307 57.4889 414.285 54.2731C414.272 53.23 414.336 52.1874 414.475 51.1536C425.935 53.9013 437.91 55.6648 450.053 51.3008L452.49 45.3352C452.832 45.3703 453.174 45.4034 453.516 45.4397L454.928 51.3063C458.129 52.6149 461.337 53.7587 464.546 52.5568C464.702 53.463 464.796 54.3878 464.868 55.2766C465.143 54.2134 465.382 53.1423 465.598 52.067C466.022 51.8395 466.428 51.5799 466.813 51.2907C466.89 49.5059 466.784 47.7178 466.497 45.9545Z" fill="#2F2E41"/>
</svg>
