<svg width="76" height="49" viewBox="0 0 76 49" fill="none" xmlns="http://www.w3.org/2000/svg">
<g clip-path="url(#clip0_181_267)">
<path d="M11.442 13.3806C11.5687 12.005 11.9189 10.6597 12.4784 9.39846C12.6343 9.04746 12.806 8.70419 12.9933 8.36865C13.0027 8.3511 13.0049 8.33056 12.9996 8.31137C12.9942 8.29217 12.9817 8.27582 12.9646 8.26576C12.9475 8.2557 12.9272 8.25271 12.908 8.25744C12.8888 8.26216 12.8721 8.27423 12.8616 8.29108C12.1803 9.51321 11.7031 10.8398 11.4489 12.2179C11.3782 12.6028 11.325 12.9904 11.2894 13.3806C11.2804 13.4791 11.433 13.4784 11.442 13.3806V13.3806Z" fill="#E6E6E6"/>
<path d="M13.3627 8.61511C13.8962 8.61511 14.3287 8.17933 14.3287 7.64178C14.3287 7.10423 13.8962 6.66846 13.3627 6.66846C12.8292 6.66846 12.3967 7.10423 12.3967 7.64178C12.3967 8.17933 12.8292 8.61511 13.3627 8.61511Z" fill="#E6E6E6"/>
<path d="M11.5409 13.4065C11.6231 12.5141 11.8502 11.6413 12.2132 10.8231C12.3144 10.5954 12.4257 10.3727 12.5473 10.155C12.5533 10.1436 12.5548 10.1303 12.5513 10.1178C12.5479 10.1054 12.5397 10.0948 12.5287 10.0882C12.5176 10.0817 12.5044 10.0798 12.4919 10.0828C12.4795 10.0859 12.4687 10.0937 12.4618 10.1047C12.0199 10.8975 11.7102 11.7582 11.5453 12.6522C11.4995 12.9019 11.465 13.1533 11.4419 13.4065C11.436 13.4704 11.535 13.47 11.5409 13.4065V13.4065Z" fill="#E6E6E6"/>
<path d="M12.7868 10.3149C13.133 10.3149 13.4135 10.0322 13.4135 9.68344C13.4135 9.33471 13.133 9.052 12.7868 9.052C12.4407 9.052 12.1602 9.33471 12.1602 9.68344C12.1602 10.0322 12.4407 10.3149 12.7868 10.3149Z" fill="#E6E6E6"/>
<path d="M11.4158 13.3468C10.9359 12.5922 10.5823 11.7633 10.369 10.8931C10.3098 10.6509 10.2616 10.4063 10.2246 10.1594C10.2224 10.1466 10.2154 10.1352 10.2051 10.1275C10.1948 10.1198 10.1819 10.1165 10.1691 10.1182C10.1564 10.12 10.1449 10.1266 10.1369 10.1367C10.1289 10.1469 10.1252 10.1598 10.1265 10.1726C10.262 11.0717 10.5432 11.9422 10.9589 12.7493C11.0752 12.9746 11.2015 13.1942 11.3378 13.4081C11.3722 13.4621 11.45 13.4004 11.4158 13.3468Z" fill="#E6E6E6"/>
<path d="M10.1257 10.2706C10.4718 10.2706 10.7524 9.98787 10.7524 9.63913C10.7524 9.2904 10.4718 9.00769 10.1257 9.00769C9.7796 9.00769 9.49902 9.2904 9.49902 9.63913C9.49902 9.98787 9.7796 10.2706 10.1257 10.2706Z" fill="#E6E6E6"/>
<path d="M9.49194 13.9055V12.6648C9.49208 12.5415 9.54077 12.4232 9.62734 12.336C9.7139 12.2488 9.83127 12.1997 9.95368 12.1996H12.8267C12.9492 12.1997 13.0665 12.2488 13.1531 12.336C13.2397 12.4232 13.2883 12.5415 13.2885 12.6648V13.9055C13.2883 14.0288 13.2397 14.1471 13.1531 14.2343C13.0665 14.3215 12.9492 14.3706 12.8267 14.3707H9.95368C9.83127 14.3706 9.7139 14.3215 9.62734 14.2343C9.54077 14.1471 9.49208 14.0288 9.49194 13.9055Z" fill="#F2F2F2"/>
<path d="M12.7243 5.99643H11.493C11.3706 5.99629 11.2532 5.94723 11.1666 5.86001C11.0801 5.77279 11.0314 5.65454 11.0312 5.53119V0.46524C11.0314 0.341894 11.0801 0.223639 11.1666 0.136419C11.2532 0.0491998 11.3706 0.00013901 11.493 0H12.7243C12.8467 0.00013901 12.9641 0.0491998 13.0506 0.136419C13.1372 0.223639 13.1859 0.341894 13.186 0.46524V5.53119C13.1859 5.65454 13.1372 5.77279 13.0506 5.86001C12.9641 5.94723 12.8467 5.99629 12.7243 5.99643Z" fill="#F2F2F2"/>
<path d="M13.1347 0.982178H11.0825V1.39572H13.1347V0.982178Z" fill="#CCCCCC"/>
<path d="M13.1347 4.18713H11.0825V4.60068H13.1347V4.18713Z" fill="#CCCCCC"/>
<path d="M15.8024 5.99643H14.5711C14.4487 5.99629 14.3313 5.94723 14.2448 5.86001C14.1582 5.77279 14.1095 5.65454 14.1094 5.53119V0.46524C14.1095 0.341894 14.1582 0.223639 14.2448 0.136419C14.3313 0.0491998 14.4487 0.00013901 14.5711 0H15.8024C15.9248 0.00013901 16.0422 0.0491998 16.1288 0.136419C16.2153 0.223639 16.264 0.341894 16.2642 0.46524V5.53119C16.264 5.65454 16.2153 5.77279 16.1288 5.86001C16.0422 5.94723 15.9248 5.99629 15.8024 5.99643V5.99643Z" fill="#F2F2F2"/>
<path d="M16.2128 0.982178H14.1606V1.39572H16.2128V0.982178Z" fill="#CCCCCC"/>
<path d="M16.2128 4.18713H14.1606V4.60068H16.2128V4.18713Z" fill="#CCCCCC"/>
<path d="M18.8808 5.99643H17.6495C17.5271 5.99629 17.4097 5.94723 17.3231 5.86001C17.2366 5.77279 17.1879 5.65454 17.1877 5.53119V0.46524C17.1879 0.341894 17.2366 0.223639 17.3231 0.136419C17.4097 0.0491998 17.5271 0.00013901 17.6495 0H18.8808C19.0032 0.00013901 19.1206 0.0491998 19.2071 0.136419C19.2937 0.223639 19.3424 0.341894 19.3425 0.46524V5.53119C19.3424 5.65454 19.2937 5.77279 19.2071 5.86001C19.1206 5.94723 19.0032 5.99629 18.8808 5.99643V5.99643Z" fill="#F2F2F2"/>
<path d="M19.2912 0.982178H17.239V1.39572H19.2912V0.982178Z" fill="#CCCCCC"/>
<path d="M19.2912 4.18713H17.239V4.60068H19.2912V4.18713Z" fill="#CCCCCC"/>
<path d="M20.5226 14.3707H19.2913C19.1689 14.3706 19.0515 14.3215 18.965 14.2343C18.8784 14.1471 18.8297 14.0288 18.8296 13.9055V8.83951C18.8297 8.71616 18.8784 8.5979 18.965 8.51069C19.0515 8.42347 19.1689 8.37441 19.2913 8.37427H20.5226C20.6451 8.37441 20.7624 8.42347 20.849 8.51069C20.9356 8.5979 20.9842 8.71616 20.9844 8.83951V13.9055C20.9842 14.0288 20.9356 14.1471 20.849 14.2343C20.7624 14.3215 20.6451 14.3706 20.5226 14.3707Z" fill="#F2F2F2"/>
<path d="M20.933 9.35645H18.8809V9.76999H20.933V9.35645Z" fill="#CCCCCC"/>
<path d="M20.933 12.5615H18.8809V12.9751H20.933V12.5615Z" fill="#CCCCCC"/>
<path d="M23.6008 14.3707H22.3695C22.247 14.3706 22.1297 14.3215 22.0431 14.2343C21.9565 14.1471 21.9079 14.0288 21.9077 13.9055V8.83951C21.9079 8.71616 21.9565 8.5979 22.0431 8.51069C22.1297 8.42347 22.247 8.37441 22.3695 8.37427H23.6008C23.7232 8.37441 23.8406 8.42347 23.9271 8.51069C24.0137 8.5979 24.0624 8.71616 24.0625 8.83951V13.9055C24.0624 14.0288 24.0137 14.1471 23.9271 14.2343C23.8406 14.3215 23.7232 14.3706 23.6008 14.3707Z" fill="#F2F2F2"/>
<path d="M24.0112 9.35645H21.959V9.76999H24.0112V9.35645Z" fill="#CCCCCC"/>
<path d="M24.0112 12.5615H21.959V12.9751H24.0112V12.5615Z" fill="#CCCCCC"/>
<path d="M26.6791 14.3707H25.4478C25.3254 14.3706 25.208 14.3215 25.1215 14.2343C25.0349 14.1471 24.9862 14.0288 24.9861 13.9055V8.83951C24.9862 8.71616 25.0349 8.5979 25.1215 8.51069C25.208 8.42347 25.3254 8.37441 25.4478 8.37427H26.6791C26.8016 8.37441 26.9189 8.42347 27.0055 8.51069C27.092 8.5979 27.1407 8.71616 27.1409 8.83951V13.9055C27.1407 14.0288 27.092 14.1471 27.0055 14.2343C26.9189 14.3215 26.8016 14.3706 26.6791 14.3707Z" fill="#F2F2F2"/>
<path d="M27.0895 9.35645H25.0374V9.76999H27.0895V9.35645Z" fill="#CCCCCC"/>
<path d="M27.0895 12.5615H25.0374V12.9751H27.0895V12.5615Z" fill="#CCCCCC"/>
<path d="M12.4164 22.7451H11.1851C11.0627 22.7449 10.9453 22.6959 10.8588 22.6087C10.7722 22.5214 10.7235 22.4032 10.7234 22.2798V17.2139C10.7235 17.0906 10.7722 16.9723 10.8588 16.8851C10.9453 16.7979 11.0627 16.7488 11.1851 16.7487H12.4164C12.5389 16.7488 12.6562 16.7979 12.7428 16.8851C12.8294 16.9723 12.878 17.0906 12.8782 17.2139V22.2798C12.878 22.4032 12.8294 22.5214 12.7428 22.6087C12.6562 22.6959 12.5389 22.7449 12.4164 22.7451V22.7451Z" fill="#F2F2F2"/>
<path d="M12.8268 17.7308H10.7747V18.1444H12.8268V17.7308Z" fill="#CCCCCC"/>
<path d="M12.8268 20.9358H10.7747V21.3493H12.8268V20.9358Z" fill="#CCCCCC"/>
<path d="M15.4946 22.7451H14.2633C14.1408 22.7449 14.0235 22.6959 13.9369 22.6087C13.8503 22.5214 13.8017 22.4032 13.8015 22.2798V17.2139C13.8017 17.0906 13.8503 16.9723 13.9369 16.8851C14.0235 16.7979 14.1408 16.7488 14.2633 16.7487H15.4946C15.617 16.7488 15.7343 16.7979 15.8209 16.8851C15.9075 16.9723 15.9562 17.0906 15.9563 17.2139V22.2798C15.9562 22.4032 15.9075 22.5214 15.8209 22.6087C15.7343 22.6959 15.617 22.7449 15.4946 22.7451V22.7451Z" fill="#F2F2F2"/>
<path d="M15.9052 17.7308H13.853V18.1444H15.9052V17.7308Z" fill="#CCCCCC"/>
<path d="M15.9052 20.9358H13.853V21.3493H15.9052V20.9358Z" fill="#CCCCCC"/>
<path d="M18.5729 22.7451H17.3416C17.2192 22.7449 17.1018 22.6959 17.0153 22.6087C16.9287 22.5214 16.88 22.4032 16.8799 22.2798V17.2139C16.88 17.0906 16.9287 16.9723 17.0153 16.8851C17.1018 16.7979 17.2192 16.7488 17.3416 16.7487H18.5729C18.6954 16.7488 18.8127 16.7979 18.8993 16.8851C18.9858 16.9723 19.0345 17.0906 19.0347 17.2139V22.2798C19.0345 22.4032 18.9858 22.5214 18.8993 22.6087C18.8127 22.6959 18.6954 22.7449 18.5729 22.7451V22.7451Z" fill="#F2F2F2"/>
<path d="M18.9833 17.7308H16.9312V18.1444H18.9833V17.7308Z" fill="#CCCCCC"/>
<path d="M18.9833 20.9358H16.9312V21.3493H18.9833V20.9358Z" fill="#CCCCCC"/>
<path d="M21.9592 5.99643H20.7279C20.6054 5.99629 20.4881 5.94723 20.4015 5.86001C20.3149 5.77279 20.2663 5.65454 20.2661 5.53119V0.46524C20.2663 0.341894 20.3149 0.223639 20.4015 0.136419C20.4881 0.0491998 20.6054 0.00013901 20.7279 0H21.9592C22.0816 0.00013901 22.1989 0.0491998 22.2855 0.136419C22.3721 0.223639 22.4208 0.341894 22.4209 0.46524V5.53119C22.4208 5.65454 22.3721 5.77279 22.2855 5.86001C22.1989 5.94723 22.0816 5.99629 21.9592 5.99643Z" fill="#F2F2F2"/>
<path d="M22.3696 0.982178H20.3174V1.39572H22.3696V0.982178Z" fill="#CCCCCC"/>
<path d="M22.3696 4.18713H20.3174V4.60068H22.3696V4.18713Z" fill="#CCCCCC"/>
<path d="M25.0373 5.99643H23.806C23.6836 5.99629 23.5662 5.94723 23.4796 5.86001C23.3931 5.77279 23.3444 5.65454 23.3442 5.53119V0.46524C23.3444 0.341894 23.3931 0.223639 23.4796 0.136419C23.5662 0.0491998 23.6836 0.00013901 23.806 0H25.0373C25.1597 0.00013901 25.2771 0.0491998 25.3636 0.136419C25.4502 0.223639 25.4989 0.341894 25.499 0.46524V5.53119C25.4989 5.65454 25.4502 5.77279 25.3636 5.86001C25.2771 5.94723 25.1597 5.99629 25.0373 5.99643V5.99643Z" fill="#F2F2F2"/>
<path d="M25.4477 0.982178H23.3955V1.39572H25.4477V0.982178Z" fill="#CCCCCC"/>
<path d="M25.4477 4.18713H23.3955V4.60068H25.4477V4.18713Z" fill="#CCCCCC"/>
<path d="M28.1157 5.99643H26.8843C26.7619 5.99629 26.6446 5.94723 26.558 5.86001C26.4714 5.77279 26.4227 5.65454 26.4226 5.53119V0.46524C26.4227 0.341894 26.4714 0.223639 26.558 0.136419C26.6446 0.0491998 26.7619 0.00013901 26.8843 0H28.1157C28.2381 0.00013901 28.3554 0.0491998 28.442 0.136419C28.5286 0.223639 28.5773 0.341894 28.5774 0.46524V5.53119C28.5773 5.65454 28.5286 5.77279 28.442 5.86001C28.3554 5.94723 28.2381 5.99629 28.1157 5.99643Z" fill="#F2F2F2"/>
<path d="M28.5261 0.982178H26.4739V1.39572H28.5261V0.982178Z" fill="#CCCCCC"/>
<path d="M28.5261 4.18713H26.4739V4.60068H28.5261V4.18713Z" fill="#CCCCCC"/>
<path d="M31.1938 5.99643H29.9625C29.8401 5.99629 29.7227 5.94723 29.6361 5.86001C29.5496 5.77279 29.5009 5.65454 29.5007 5.53119V0.46524C29.5009 0.341894 29.5496 0.223639 29.6361 0.136419C29.7227 0.0491998 29.8401 0.00013901 29.9625 0H31.1938C31.3162 0.00013901 31.4336 0.0491998 31.5201 0.136419C31.6067 0.223639 31.6554 0.341894 31.6555 0.46524V5.53119C31.6554 5.65454 31.6067 5.77279 31.5201 5.86001C31.4336 5.94723 31.3162 5.99629 31.1938 5.99643Z" fill="#F2F2F2"/>
<path d="M31.6044 0.982178H29.5522V1.39572H31.6044V0.982178Z" fill="#CCCCCC"/>
<path d="M31.6044 4.18713H29.5522V4.60068H31.6044V4.18713Z" fill="#CCCCCC"/>
<path d="M35.8052 6.15148H6.56159C6.53438 6.15148 6.50828 6.14058 6.48904 6.12119C6.4698 6.1018 6.45898 6.07551 6.45898 6.04809C6.45898 6.02067 6.4698 5.99437 6.48904 5.97498C6.50828 5.95559 6.53438 5.9447 6.56159 5.9447H35.8052C35.8324 5.9447 35.8585 5.95559 35.8777 5.97498C35.897 5.99437 35.9078 6.02067 35.9078 6.04809C35.9078 6.07551 35.897 6.1018 35.8777 6.12119C35.8585 6.14058 35.8324 6.15148 35.8052 6.15148Z" fill="#CCCCCC"/>
<path d="M35.8052 14.5259H6.56159C6.53438 14.5259 6.50828 14.515 6.48904 14.4956C6.4698 14.4762 6.45898 14.4499 6.45898 14.4225C6.45898 14.3951 6.4698 14.3688 6.48904 14.3494C6.50828 14.33 6.53438 14.3191 6.56159 14.3191H35.8052C35.8324 14.3191 35.8585 14.33 35.8777 14.3494C35.897 14.3688 35.9078 14.3951 35.9078 14.4225C35.9078 14.4499 35.897 14.4762 35.8777 14.4956C35.8585 14.515 35.8324 14.5259 35.8052 14.5259Z" fill="#CCCCCC"/>
<path d="M35.8052 22.9001H6.56159C6.53438 22.9001 6.50828 22.8892 6.48904 22.8699C6.4698 22.8505 6.45898 22.8242 6.45898 22.7967C6.45898 22.7693 6.4698 22.743 6.48904 22.7236C6.50828 22.7043 6.53438 22.6934 6.56159 22.6934H35.8052C35.8324 22.6934 35.8585 22.7043 35.8777 22.7236C35.897 22.743 35.9078 22.7693 35.9078 22.7967C35.9078 22.8242 35.897 22.8505 35.8777 22.8699C35.8585 22.8892 35.8324 22.9001 35.8052 22.9001Z" fill="#CCCCCC"/>
<path d="M34.0733 39.13C34.0733 38.3306 31.0872 37.6826 27.4037 37.6826C23.7202 37.6826 20.7341 38.3306 20.7341 39.13C20.7341 39.6424 21.9618 40.0922 23.8124 40.3494V48.2798C23.8124 48.458 23.8827 48.6289 24.0078 48.7549C24.1328 48.881 24.3025 48.9518 24.4794 48.9518C24.6563 48.9518 24.8259 48.881 24.951 48.7549C25.0761 48.6289 25.1463 48.458 25.1463 48.2798V40.4923C25.8515 40.5473 26.6113 40.5774 27.4037 40.5774C28.1962 40.5774 28.956 40.5473 29.6611 40.4923V48.2798C29.6611 48.458 29.7314 48.6289 29.8565 48.7549C29.9815 48.881 30.1512 48.9518 30.3281 48.9518C30.505 48.9518 30.6746 48.881 30.7997 48.7549C30.9248 48.6289 30.995 48.458 30.995 48.2798V40.3494C32.8457 40.0922 34.0733 39.6424 34.0733 39.13Z" fill="#CCCCCC"/>
<path d="M32.79 47.6515H34.048L34.6464 42.7626H32.7898L32.79 47.6515Z" fill="#E7E7E7"/>
<path d="M36.4741 48.8284L32.5205 48.8286L32.5205 47.2894L34.9465 47.2893C35.3517 47.2893 35.7402 47.4515 36.0267 47.7401C36.3132 48.0287 36.4741 48.4202 36.4741 48.8284V48.8284L36.4741 48.8284Z" fill="#2F2E41"/>
<path d="M34.7539 46.9442L35.9541 46.5647L35.0725 41.7195L33.301 42.2795L34.7539 46.9442Z" fill="#E7E7E7"/>
<path d="M38.6187 46.9557L34.8464 48.1484L34.3891 46.6799L36.7038 45.948C37.0904 45.8258 37.5093 45.8633 37.8684 46.0523C38.2275 46.2413 38.4974 46.5662 38.6187 46.9557V46.9557Z" fill="#2F2E41"/>
<path d="M33.9121 44.6939L31.6109 38.6074C31.0946 38.7296 26.765 39.6949 25.3149 38.1393C24.818 37.6061 24.721 36.8336 25.0268 35.8433L25.8731 34.7717L25.8994 34.7731C26.2194 34.7901 33.7424 35.215 34.2581 37.5014C34.6929 39.429 35.487 43.0228 35.72 44.0784C35.7436 44.1877 35.7274 44.302 35.6744 44.4004C35.6214 44.4987 35.5351 44.5746 35.4312 44.6143L34.5058 44.9639C34.4542 44.9835 34.3996 44.9935 34.3445 44.9935C34.2508 44.9935 34.1593 44.9648 34.0821 44.9114C34.0049 44.8579 33.9457 44.7821 33.9121 44.6939Z" fill="#2F2E41"/>
<path d="M32.5782 45.4177L30.2769 39.3312C29.7606 39.4534 25.431 40.4186 23.9809 38.863C23.484 38.3298 23.3871 37.5574 23.6929 36.567L24.5391 35.4955L24.5654 35.4969C24.8854 35.5139 32.4084 35.9387 32.9241 38.2251C33.3589 40.1527 34.153 43.7465 34.386 44.8021C34.4096 44.9115 34.3934 45.0258 34.3404 45.1241C34.2874 45.2225 34.2011 45.2984 34.0972 45.338L33.1718 45.6877C33.1202 45.7072 33.0656 45.7172 33.0105 45.7172C32.9168 45.7172 32.8253 45.6886 32.7481 45.6351C32.671 45.5816 32.6117 45.5058 32.5782 45.4177Z" fill="#2F2E41"/>
<path d="M35.6883 30.8274C35.6543 30.8732 35.6239 30.9217 35.5975 30.9723L30.5368 31.5095L29.8083 30.5032L28.1572 31.4124L29.5881 33.8545L35.7946 32.2601C35.9512 32.4139 36.1505 32.516 36.3662 32.5529C36.5818 32.5898 36.8034 32.5596 37.0016 32.4665C37.1998 32.3734 37.3652 32.2217 37.4757 32.0315C37.5862 31.8414 37.6367 31.6219 37.6204 31.4021C37.6041 31.1824 37.5217 30.9729 37.3844 30.8014C37.247 30.63 37.0611 30.5047 36.8513 30.4424C36.6416 30.38 36.418 30.3834 36.2102 30.4522C36.0025 30.521 35.8204 30.6518 35.6883 30.8274V30.8274Z" fill="#E7E7E7"/>
<path d="M23.6604 36.8883C23.5912 36.838 23.5371 36.7694 23.5041 36.69C23.4712 36.6107 23.4607 36.5237 23.4738 36.4387C23.7593 34.5423 23.4308 31.8257 23.105 29.8806C23.0383 29.486 23.0642 29.0811 23.1807 28.6983C23.2973 28.3156 23.5012 27.9657 23.776 27.6767C24.0509 27.3876 24.3892 27.1674 24.7637 27.0338C25.1382 26.9001 25.5386 26.8567 25.9328 26.907C26.2757 26.9527 26.6155 27.0202 26.9499 27.1091C27.5055 27.25 27.997 27.5773 28.3435 28.037C28.69 28.4968 28.871 29.0616 28.8566 29.6387C28.8079 31.5156 29.1861 33.8575 29.351 34.7772C29.3623 34.8403 29.3605 34.9052 29.3458 34.9676C29.3311 35.0301 29.3037 35.0888 29.2655 35.1401C29.228 35.1909 29.1804 35.2333 29.1257 35.2644C29.071 35.2956 29.0104 35.3149 28.9479 35.321C27.1206 35.5089 25.1501 36.4068 24.1381 36.9253C24.0731 36.9591 24.001 36.9768 23.9278 36.9771C23.8316 36.9767 23.738 36.9457 23.6604 36.8883V36.8883Z" fill="#6C63FF"/>
<path d="M28.593 31.997C28.5365 31.9746 28.485 31.9412 28.4414 31.8987C28.3979 31.8561 28.3631 31.8053 28.3392 31.7491L27.3201 29.3772C27.2584 29.2339 27.2254 29.0797 27.2228 28.9235C27.2203 28.7673 27.2483 28.6122 27.3053 28.4669C27.3623 28.3216 27.4472 28.1891 27.555 28.0769C27.6629 27.9647 27.7916 27.875 27.9339 27.8129C28.0762 27.7509 28.2292 27.7177 28.3843 27.7152C28.5393 27.7128 28.6933 27.7412 28.8374 27.7987C28.9815 27.8563 29.113 27.9419 29.2243 28.0507C29.3355 28.1594 29.4245 28.2892 29.4859 28.4327L30.505 30.8046C30.5535 30.9178 30.5554 31.0458 30.5103 31.1605C30.4653 31.2752 30.377 31.3672 30.2647 31.4163L28.9464 31.9913C28.8908 32.0158 28.8309 32.0289 28.7702 32.0298C28.7096 32.0308 28.6493 32.0196 28.593 31.997H28.593Z" fill="#6C63FF"/>
<path d="M30.8655 30.6206C30.8315 30.6665 30.8011 30.7149 30.7747 30.7655L25.714 31.3028L24.9855 30.2964L23.3345 31.2056L24.7653 33.6477L30.9719 32.0533C31.1284 32.2071 31.3278 32.3092 31.5434 32.3461C31.759 32.383 31.9806 32.3529 32.1788 32.2597C32.377 32.1666 32.5424 32.0149 32.6529 31.8247C32.7635 31.6346 32.8139 31.4151 32.7976 31.1954C32.7813 30.9756 32.699 30.7661 32.5616 30.5946C32.4242 30.4232 32.2383 30.298 32.0286 30.2356C31.8188 30.1732 31.5952 30.1766 31.3875 30.2454C31.1797 30.3142 30.9976 30.4451 30.8655 30.6206V30.6206Z" fill="#E7E7E7"/>
<path d="M23.7702 32.1004C23.7138 32.078 23.6623 32.0446 23.6187 32.0021C23.5751 31.9595 23.5404 31.9087 23.5164 31.8525L22.4974 29.4806C22.4357 29.3373 22.4026 29.1831 22.4001 29.0269C22.3975 28.8707 22.4256 28.7155 22.4826 28.5703C22.5396 28.425 22.6244 28.2925 22.7323 28.1803C22.8401 28.068 22.9689 27.9783 23.1112 27.9163C23.2535 27.8542 23.4065 27.8211 23.5615 27.8186C23.7165 27.8162 23.8705 27.8446 24.0146 27.9021C24.1588 27.9597 24.2902 28.0453 24.4015 28.1541C24.5128 28.2628 24.6017 28.3926 24.6632 28.5361L25.6822 30.908C25.7307 31.0212 25.7326 31.1492 25.6876 31.2639C25.6425 31.3786 25.5542 31.4706 25.4419 31.5197L24.1236 32.0947C24.068 32.1192 24.0082 32.1323 23.9475 32.1332C23.8868 32.1342 23.8266 32.123 23.7702 32.1004H23.7702Z" fill="#6C63FF"/>
<path d="M25.7453 26.1002C27.1371 26.1002 28.2655 24.9633 28.2655 23.5609C28.2655 22.1585 27.1371 21.0216 25.7453 21.0216C24.3534 21.0216 23.2251 22.1585 23.2251 23.5609C23.2251 24.9633 24.3534 26.1002 25.7453 26.1002Z" fill="#E7E7E7"/>
<path d="M23.9434 25.3037C23.9326 25.2718 23.9291 25.2379 23.9333 25.2045C23.9376 25.1711 23.9493 25.1391 23.9677 25.1109C23.9861 25.0828 24.0106 25.0593 24.0394 25.0422C24.0682 25.0251 24.1005 25.0148 24.1338 25.0123C24.2021 25.016 24.2689 25.0336 24.3302 25.0641C24.3915 25.0946 24.446 25.1373 24.4905 25.1896C24.5817 25.2955 24.6879 25.3874 24.8057 25.4622C24.9276 25.5241 25.0929 25.5153 25.1624 25.3973C25.2277 25.2864 25.183 25.138 25.1434 25.0092C25.0429 24.6816 24.9867 24.3418 24.9762 23.9991C24.9648 23.6165 25.0184 23.2173 25.2286 22.9189C25.4999 22.5338 25.985 22.3876 26.444 22.3982C26.9031 22.4088 27.3547 22.5516 27.8095 22.6419C27.9665 22.673 28.151 22.689 28.256 22.5664C28.3676 22.436 28.3266 22.2251 28.2791 22.0491C28.1559 21.5923 28.0252 21.1202 27.7389 20.7513C27.4293 20.368 26.9871 20.1172 26.5013 20.0493C26.0349 19.9911 25.5615 20.0453 25.12 20.2073C24.4006 20.4358 23.7675 20.8801 23.3055 21.4809C22.8293 22.1198 22.6235 22.9227 22.7332 23.7141C22.8403 24.4033 23.2028 25.026 23.7476 25.4566L23.9434 25.3037Z" fill="#2F2E41"/>
<path d="M14.3206 31.4168C14.4474 30.0412 14.7975 28.6959 15.357 27.4346C15.513 27.0836 15.6846 26.7403 15.8719 26.4048C15.8813 26.3872 15.8836 26.3667 15.8783 26.3475C15.8729 26.3283 15.8604 26.312 15.8433 26.3019C15.8262 26.2918 15.8059 26.2888 15.7867 26.2936C15.7675 26.2983 15.7508 26.3104 15.7402 26.3272C15.059 27.5493 14.5817 28.876 14.3275 30.2541C14.2568 30.6389 14.2037 31.0265 14.1681 31.4168C14.1591 31.5152 14.3117 31.5146 14.3206 31.4168V31.4168Z" fill="#3F3D56"/>
<path d="M16.2414 26.6512C16.7749 26.6512 17.2074 26.2155 17.2074 25.6779C17.2074 25.1404 16.7749 24.7046 16.2414 24.7046C15.7079 24.7046 15.2754 25.1404 15.2754 25.6779C15.2754 26.2155 15.7079 26.6512 16.2414 26.6512Z" fill="#6C63FF"/>
<path d="M14.4195 31.4426C14.5018 30.5502 14.7289 29.6775 15.0919 28.8592C15.193 28.6315 15.3044 28.4088 15.4259 28.1911C15.432 28.1797 15.4335 28.1664 15.43 28.154C15.4265 28.1415 15.4184 28.1309 15.4073 28.1244C15.3962 28.1178 15.3831 28.1159 15.3706 28.119C15.3581 28.122 15.3473 28.1299 15.3405 28.1408C14.8985 28.9337 14.5889 29.7943 14.424 30.6883C14.3781 30.938 14.3436 31.1894 14.3206 31.4426C14.3147 31.5065 14.4137 31.5061 14.4195 31.4426V31.4426Z" fill="#3F3D56"/>
<path d="M15.6655 28.351C16.0116 28.351 16.2922 28.0683 16.2922 27.7196C16.2922 27.3708 16.0116 27.0881 15.6655 27.0881C15.3194 27.0881 15.0388 27.3708 15.0388 27.7196C15.0388 28.0683 15.3194 28.351 15.6655 28.351Z" fill="#6C63FF"/>
<path d="M14.2948 31.383C13.8148 30.6284 13.4612 29.7995 13.2479 28.9294C13.1887 28.6872 13.1405 28.4426 13.1035 28.1956C13.1013 28.1829 13.0943 28.1714 13.084 28.1638C13.0737 28.1561 13.0608 28.1528 13.048 28.1545C13.0353 28.1562 13.0238 28.1629 13.0158 28.173C13.0078 28.1831 13.0041 28.196 13.0054 28.2089C13.1409 29.1079 13.4221 29.9784 13.8378 30.7855C13.9541 31.0108 14.0804 31.2304 14.2167 31.4444C14.2511 31.4984 14.3289 31.4367 14.2948 31.383Z" fill="#3F3D56"/>
<path d="M13.0044 28.3067C13.3505 28.3067 13.6311 28.024 13.6311 27.6753C13.6311 27.3265 13.3505 27.0438 13.0044 27.0438C12.6583 27.0438 12.3777 27.3265 12.3777 27.6753C12.3777 28.024 12.6583 28.3067 13.0044 28.3067Z" fill="#6C63FF"/>
<path d="M12.3708 31.9417V30.7011C12.371 30.5777 12.4197 30.4595 12.5062 30.3723C12.5928 30.285 12.7102 30.236 12.8326 30.2358H15.7056C15.8281 30.236 15.9454 30.285 16.032 30.3723C16.1186 30.4595 16.1672 30.5777 16.1674 30.7011V31.9417C16.1672 32.0651 16.1186 32.1833 16.032 32.2705C15.9454 32.3578 15.8281 32.4068 15.7056 32.407H12.8326C12.7102 32.4068 12.5928 32.3578 12.5062 32.2705C12.4197 32.1833 12.371 32.0651 12.3708 31.9417Z" fill="#CCCCCC"/>
<path d="M38.1264 31.5828H30.0203C29.8219 31.5828 29.6611 31.7448 29.6611 31.9446C29.6611 32.1445 29.8219 32.3065 30.0203 32.3065H38.1264C38.3247 32.3065 38.4855 32.1445 38.4855 31.9446C38.4855 31.7448 38.3247 31.5828 38.1264 31.5828Z" fill="#CCCCCC"/>
<path d="M43.5648 32.3066H34.4326C34.2558 32.3064 34.0862 32.2355 33.9612 32.1095C33.8362 31.9836 33.7658 31.8127 33.7656 31.6346V26.5686C33.7658 26.3905 33.8362 26.2196 33.9612 26.0937C34.0862 25.9677 34.2558 25.8968 34.4326 25.8966H43.5648C43.7416 25.8968 43.9111 25.9677 44.0362 26.0937C44.1612 26.2196 44.2315 26.3905 44.2317 26.5686V31.6346C44.2315 31.8127 44.1612 31.9836 44.0362 32.1095C43.9111 32.2355 43.7416 32.3064 43.5648 32.3066V32.3066Z" fill="#CCCCCC"/>
<path d="M38.9987 29.7218C39.3387 29.7218 39.6144 29.4441 39.6144 29.1015C39.6144 28.7589 39.3387 28.4812 38.9987 28.4812C38.6587 28.4812 38.3831 28.7589 38.3831 29.1015C38.3831 29.4441 38.6587 29.7218 38.9987 29.7218Z" fill="white"/>
<path d="M66.8057 39.13C66.8057 38.3306 63.8196 37.6826 60.1361 37.6826C56.4526 37.6826 53.4666 38.3306 53.4666 39.13C53.4666 39.6424 54.6942 40.0922 56.5448 40.3494V48.2798C56.5448 48.458 56.6151 48.6289 56.7402 48.7549C56.8653 48.881 57.0349 48.9518 57.2118 48.9518C57.3887 48.9518 57.5583 48.881 57.6834 48.7549C57.8085 48.6289 57.8787 48.458 57.8787 48.2798V40.4923C58.5839 40.5473 59.3437 40.5774 60.1361 40.5774C60.9286 40.5774 61.6884 40.5473 62.3935 40.4923V48.2798C62.3935 48.458 62.4638 48.6289 62.5889 48.7549C62.714 48.881 62.8836 48.9518 63.0605 48.9518C63.2374 48.9518 63.407 48.881 63.5321 48.7549C63.6572 48.6289 63.7275 48.458 63.7275 48.2798V40.3494C65.5781 40.0922 66.8057 39.6424 66.8057 39.13Z" fill="#CCCCCC"/>
<path d="M60.8735 25.8818C62.4603 25.8818 63.7466 24.5858 63.7466 22.987C63.7466 21.3882 62.4603 20.0922 60.8735 20.0922C59.2868 20.0922 58.0005 21.3882 58.0005 22.987C58.0005 24.5858 59.2868 25.8818 60.8735 25.8818Z" fill="#2F2E41"/>
<path d="M53.7238 47.7549H52.4658L51.8674 42.866H53.724L53.7238 47.7549Z" fill="#F1F1F1"/>
<path d="M51.5673 47.3927H53.9934V48.9318H50.0398C50.0398 48.7297 50.0793 48.5295 50.1561 48.3428C50.2328 48.1561 50.3454 47.9864 50.4872 47.8435C50.629 47.7006 50.7974 47.5872 50.9828 47.5099C51.1681 47.4325 51.3667 47.3927 51.5673 47.3927V47.3927Z" fill="#2F2E41"/>
<path d="M51.76 47.0476L50.5598 46.6681L51.4414 41.8229L53.2129 42.3829L51.76 47.0476Z" fill="#F1F1F1"/>
<path d="M49.81 46.0514L52.1248 46.7833L51.6674 48.2518L47.8952 47.0591C47.9552 46.8662 48.0524 46.6872 48.1811 46.5322C48.3099 46.3772 48.4676 46.2492 48.6455 46.1557C48.8233 46.0621 49.0176 46.0047 49.2174 45.9868C49.4172 45.9689 49.6186 45.9909 49.81 46.0514V46.0514Z" fill="#2F2E41"/>
<path d="M52.1693 45.0969C52.1142 45.0969 52.0596 45.0869 52.008 45.0673L51.0825 44.7177C50.9787 44.678 50.8923 44.6021 50.8393 44.5038C50.7863 44.4054 50.7702 44.2911 50.7938 44.1817C51.0268 43.1262 51.8209 39.5324 52.2557 37.6048C52.7714 35.3184 60.2944 34.8935 60.6144 34.8765L60.6407 34.8751L61.4869 35.9466C61.7927 36.937 61.6958 37.7095 61.1989 38.2427C59.7488 39.7983 55.4192 38.833 54.9029 38.7108L52.6016 44.7973C52.5681 44.8855 52.5088 44.9613 52.4316 45.0147C52.3545 45.0682 52.263 45.0969 52.1693 45.0969V45.0969Z" fill="#2F2E41"/>
<path d="M53.5033 45.8206C53.4482 45.8206 53.3936 45.8106 53.342 45.7911L52.4165 45.4414C52.3126 45.4018 52.2263 45.3259 52.1733 45.2275C52.1203 45.1292 52.1042 45.0149 52.1278 44.9055C52.3608 43.8499 53.1549 40.2561 53.5897 38.3285C54.1054 36.0421 61.6284 35.6173 61.9483 35.6003L61.9746 35.5989L62.8209 36.6704C63.1267 37.6607 63.0298 38.4332 62.5328 38.9664C61.0827 40.522 56.7532 39.5568 56.2369 39.4346L53.9356 45.5211C53.9021 45.6092 53.8428 45.685 53.7656 45.7385C53.6884 45.792 53.597 45.8206 53.5033 45.8206V45.8206Z" fill="#2F2E41"/>
<path d="M50.8257 30.9308C50.8597 30.9766 50.8901 31.0251 50.9165 31.0757L55.9772 31.6129L56.7057 30.6066L58.3568 31.5158L56.9259 33.9579L50.7194 32.3634C50.5628 32.5173 50.3635 32.6194 50.1478 32.6563C49.9322 32.6932 49.7106 32.663 49.5124 32.5699C49.3142 32.4768 49.1488 32.3251 49.0383 32.1349C48.9278 31.9448 48.8773 31.7253 48.8936 31.5055C48.9099 31.2858 48.9923 31.0763 49.1296 30.9048C49.267 30.7334 49.4529 30.6081 49.6627 30.5457C49.8724 30.4834 50.096 30.4868 50.3038 30.5556C50.5115 30.6244 50.6936 30.7552 50.8257 30.9308V30.9308Z" fill="#F1F1F1"/>
<path d="M62.586 37.0804C62.5128 37.0802 62.4408 37.0625 62.3757 37.0286C61.3638 36.5102 59.3933 35.6123 57.566 35.4244C57.5034 35.4183 57.4429 35.399 57.3882 35.3678C57.3335 35.3366 57.2859 35.2943 57.2484 35.2435C57.2101 35.1922 57.1828 35.1335 57.1681 35.071C57.1533 35.0086 57.1516 34.9437 57.1628 34.8805C57.3277 33.9609 57.7059 31.619 57.6572 29.7421C57.6429 29.165 57.8238 28.6002 58.1703 28.1404C58.5169 27.6807 59.0083 27.3534 59.5639 27.2125V27.2125C59.8984 27.1236 60.2381 27.0561 60.581 27.0104C60.9752 26.9601 61.3756 27.0035 61.7501 27.1372C62.1246 27.2708 62.4629 27.491 62.7378 27.7801C63.0127 28.0691 63.2166 28.419 63.3331 28.8017C63.4496 29.1845 63.4756 29.5894 63.4089 29.984C63.083 31.9291 62.7545 34.6457 63.04 36.5421C63.0531 36.6271 63.0426 36.7141 63.0097 36.7934C62.9768 36.8728 62.9227 36.9414 62.8534 36.9917C62.7759 37.0491 62.6822 37.0801 62.586 37.0804V37.0804Z" fill="#6C63FF"/>
<path d="M57.7509 32.1333C57.6879 32.1332 57.6255 32.1201 57.5676 32.0947L56.2493 31.5197C56.137 31.4706 56.0487 31.3786 56.0036 31.2639C55.9586 31.1492 55.9605 31.0212 56.009 30.908L57.0281 28.5361C57.0895 28.3926 57.1784 28.2628 57.2897 28.1541C57.401 28.0453 57.5325 27.9597 57.6766 27.9021C57.8207 27.8446 57.9747 27.8162 58.1297 27.8186C58.2848 27.8211 58.4378 27.8542 58.5801 27.9163C58.7223 27.9783 58.8511 28.068 58.959 28.1803C59.0668 28.2925 59.1517 28.425 59.2087 28.5703C59.2657 28.7155 59.2937 28.8707 59.2912 29.0269C59.2886 29.1831 59.2556 29.3373 59.1939 29.4806L58.1748 31.8525C58.1389 31.9358 58.0797 32.0067 58.0045 32.0566C57.9292 32.1065 57.841 32.1331 57.7509 32.1333V32.1333Z" fill="#6C63FF"/>
<path d="M60.7685 26.2036C62.1603 26.2036 63.2887 25.0667 63.2887 23.6643C63.2887 22.2619 62.1603 21.125 60.7685 21.125C59.3766 21.125 58.2483 22.2619 58.2483 23.6643C58.2483 25.0667 59.3766 26.2036 60.7685 26.2036Z" fill="#F1F1F1"/>
<path d="M58.2031 22.4167C59.3969 23.1509 60.7426 23.5977 62.1357 23.7223L61.7212 23.2218C62.023 23.3343 62.3406 23.3978 62.6622 23.4101C62.9834 23.4051 63.3199 23.2805 63.5022 23.014C63.5835 22.8815 63.6318 22.7311 63.643 22.5758C63.6542 22.4204 63.6279 22.2647 63.5664 22.1218C63.44 21.8367 63.2434 21.589 62.9952 21.4022C62.5553 21.0515 62.036 20.816 61.4838 20.7165C60.9316 20.6171 60.3636 20.6568 59.8303 20.8323C59.4645 20.9424 59.1369 21.1541 58.885 21.4432C58.6461 21.7402 58.1862 22.0048 58.3085 22.3666L58.2031 22.4167Z" fill="#2F2E41"/>
<path d="M61.1923 20.3675C60.3974 19.5553 59.4355 18.9286 58.3743 18.5314C57.6931 18.2771 56.9517 18.12 56.2395 18.2644C55.5274 18.4088 54.8539 18.9052 54.6552 19.6093C54.4927 20.185 54.6605 20.8048 54.9126 21.3467C55.1647 21.8887 55.5013 22.3912 55.7052 22.9534C55.9133 23.5269 55.9758 24.1438 55.8872 24.7479C55.7987 25.3521 55.5617 25.9243 55.198 26.4128C54.8342 26.9013 54.3551 27.2905 53.8042 27.5451C53.2533 27.7996 52.6479 27.9116 52.0432 27.8707C52.7429 27.9652 53.3879 28.2965 54.0719 28.4729C54.7558 28.6492 55.5631 28.6373 56.0713 28.1436C56.6091 27.6212 56.6199 26.7719 56.5939 26.0197L56.4779 22.6654C56.4582 22.0951 56.4414 21.5066 56.6455 20.9744C56.8496 20.4422 57.3346 19.9761 57.9009 19.981C58.33 19.9847 58.7099 20.2466 59.0541 20.505C59.3982 20.7633 59.7625 21.0389 60.19 21.0773C60.6175 21.1158 61.1056 20.797 61.0736 20.3658" fill="#2F2E41"/>
<path d="M49.4778 29.0607L55.2806 29.1987L56.1213 35.449L50.7623 35.5702L49.4778 29.0607Z" fill="#E6E6E6"/>
<path d="M55.6482 30.724C55.6822 30.7699 55.7126 30.8183 55.739 30.8689L60.7997 31.4062L61.5282 30.3998L63.1793 31.309L61.7485 33.7511L55.5419 32.1567C55.3853 32.3105 55.186 32.4126 54.9704 32.4495C54.7548 32.4864 54.5331 32.4563 54.3349 32.3631C54.1367 32.27 53.9714 32.1183 53.8608 31.9281C53.7503 31.738 53.6998 31.5185 53.7161 31.2987C53.7324 31.079 53.8148 30.8695 53.9521 30.698C54.0895 30.5266 54.2754 30.4013 54.4852 30.339C54.6949 30.2766 54.9185 30.28 55.1263 30.3488C55.3341 30.4176 55.5161 30.5485 55.6482 30.724V30.724Z" fill="#F1F1F1"/>
<path d="M62.5734 32.2367C62.5104 32.2366 62.448 32.2235 62.3901 32.1981L61.0718 31.6231C60.9595 31.574 60.8712 31.482 60.8262 31.3673C60.7811 31.2526 60.783 31.1246 60.8315 31.0114L61.8506 28.6394C61.912 28.496 62.001 28.3662 62.1122 28.2575C62.2235 28.1487 62.355 28.0631 62.4991 28.0055C62.6432 27.948 62.7972 27.9196 62.9522 27.922C63.1073 27.9245 63.2603 27.9576 63.4026 28.0197C63.5449 28.0817 63.6736 28.1714 63.7815 28.2837C63.8893 28.3959 63.9742 28.5284 64.0312 28.6737C64.0882 28.8189 64.1162 28.9741 64.1137 29.1303C64.1111 29.2865 64.0781 29.4407 64.0164 29.584L62.9973 31.9559C62.9615 32.0392 62.9023 32.1101 62.827 32.16C62.7517 32.2099 62.6636 32.2365 62.5734 32.2367V32.2367Z" fill="#6C63FF"/>
<path d="M50.6448 32.2031H9.80636C9.62947 32.2031 9.45983 32.2739 9.33475 32.4C9.20967 32.526 9.1394 32.6969 9.1394 32.8751C9.1394 33.0534 9.20967 33.2243 9.33475 33.3503C9.45983 33.4764 9.62947 33.5472 9.80636 33.5472H10.9864V48.1764C10.9864 48.3546 11.0566 48.5255 11.1817 48.6516C11.3068 48.7776 11.4764 48.8484 11.6533 48.8484C11.8302 48.8484 11.9999 48.7776 12.1249 48.6516C12.25 48.5255 12.3203 48.3546 12.3203 48.1764V34.8385L19.7975 48.4936C19.8862 48.6475 20.0318 48.7598 20.2025 48.8057C20.3732 48.8516 20.5549 48.8274 20.7079 48.7384C20.8609 48.6494 20.9726 48.5028 21.0185 48.331C21.0644 48.1591 21.0407 47.9759 20.9527 47.8215L13.1364 33.5472H48.8491V33.5559L41.0376 47.8215C40.9492 47.9759 40.9252 48.1593 40.971 48.3315C41.0167 48.5036 41.1285 48.6504 41.2817 48.7395C41.4349 48.8286 41.6169 48.8528 41.7878 48.8066C41.9586 48.7605 42.1043 48.6479 42.1927 48.4936L48.8491 36.3375V48.1764C48.8491 48.3546 48.9194 48.5255 49.0445 48.6516C49.1695 48.7776 49.3392 48.8484 49.5161 48.8484C49.693 48.8484 49.8626 48.7776 49.9877 48.6516C50.1128 48.5255 50.183 48.3546 50.183 48.1764V33.9015L50.3771 33.5472H50.6448C50.8217 33.5472 50.9913 33.4764 51.1164 33.3503C51.2415 33.2243 51.3117 33.0534 51.3117 32.8751C51.3117 32.6969 51.2415 32.526 51.1164 32.4C50.9913 32.2739 50.8217 32.2031 50.6448 32.2031V32.2031Z" fill="#3F3D56"/>
<path d="M75.8777 49H0.122066C0.0897243 48.9999 0.0587401 48.9869 0.0359043 48.9638C0.0130685 48.9407 0.000244141 48.9095 0.000244141 48.8769C0.000244141 48.8443 0.0130685 48.813 0.0359043 48.79C0.0587401 48.7669 0.0897243 48.7539 0.122066 48.7538H75.8777C75.9101 48.7538 75.9412 48.7668 75.9641 48.7898C75.987 48.8129 75.9999 48.8442 75.9999 48.8769C75.9999 48.9095 75.987 48.9408 75.9641 48.9639C75.9412 48.987 75.9101 49 75.8777 49V49Z" fill="#3F3D56"/>
</g>
<defs>
<clipPath id="clip0_181_267">
<rect width="76" height="49" fill="white"/>
</clipPath>
</defs>
</svg>
