<svg width="72" height="53" viewBox="0 0 72 53" fill="none" xmlns="http://www.w3.org/2000/svg">
<g clip-path="url(#clip0_181_47)">
<path d="M7.08057 14.086C10.9911 14.086 14.1611 10.9327 14.1611 7.043C14.1611 3.15326 10.9911 0 7.08057 0C3.17008 0 0 3.15326 0 7.043C0 10.9327 3.17008 14.086 7.08057 14.086Z" fill="#F0F0F0"/>
<path d="M64.9194 29.8691C68.8299 29.8691 72 26.7158 72 22.8261C72 18.9363 68.8299 15.7831 64.9194 15.7831C61.0089 15.7831 57.8389 18.9363 57.8389 22.8261C57.8389 26.7158 61.0089 29.8691 64.9194 29.8691Z" fill="#F0F0F0"/>
<path d="M42.8003 52.4297L41.5555 51.9083L40.7015 45.701H29.3296L28.4039 51.883L27.2902 52.4369C27.2369 52.4634 27.1942 52.507 27.169 52.5607C27.1437 52.6144 27.1374 52.6749 27.1511 52.7326C27.1648 52.7903 27.1977 52.8417 27.2444 52.8785C27.2911 52.9152 27.3489 52.9352 27.4085 52.9352H42.6977C42.7588 52.9352 42.818 52.9142 42.8652 52.8758C42.9125 52.8373 42.9449 52.7838 42.957 52.7242C42.969 52.6647 42.9601 52.6028 42.9315 52.5492C42.9029 52.4955 42.8566 52.4533 42.8003 52.4297V52.4297Z" fill="#E6E6E6"/>
<path d="M63.0092 46.5269H7.14698C6.85388 46.5263 6.57302 46.41 6.36601 46.2036C6.15899 45.9973 6.04273 45.7176 6.04272 45.4261V37.5906H64.1134V45.4261C64.1134 45.7176 63.9972 45.9973 63.7902 46.2036C63.5831 46.41 63.3023 46.5263 63.0092 46.5269V46.5269Z" fill="#CCCCCC"/>
<path d="M64.1718 41.2937H5.9917V7.76725C5.99211 7.41541 6.13281 7.07809 6.38293 6.82931C6.63305 6.58052 6.97217 6.44058 7.32589 6.44019H62.8376C63.1913 6.44058 63.5304 6.58052 63.7806 6.8293C64.0307 7.07809 64.1714 7.4154 64.1718 7.76725V41.2937Z" fill="#06004A" fill-opacity="0.74"/>
<path d="M60.6969 38.8604H9.46655C9.19385 38.8601 8.93241 38.7523 8.73959 38.5605C8.54676 38.3687 8.43829 38.1086 8.43799 37.8374V9.89667C8.43829 9.62542 8.54675 9.36536 8.73958 9.17355C8.9324 8.98174 9.19385 8.87385 9.46655 8.87354H60.6969C60.9696 8.87385 61.231 8.98174 61.4239 9.17355C61.6167 9.36536 61.7252 9.62542 61.7255 9.89667V37.8374C61.7252 38.1086 61.6167 38.3687 61.4239 38.5605C61.231 38.7523 60.9696 38.8601 60.6969 38.8604Z" fill="white"/>
<path d="M49.4493 53H20.6622C20.6327 53.0006 20.6039 52.9915 20.5801 52.9741C20.5564 52.9567 20.5391 52.932 20.5309 52.9038C20.5258 52.8846 20.5252 52.8645 20.5292 52.845C20.5331 52.8256 20.5415 52.8073 20.5537 52.7915C20.5659 52.7758 20.5815 52.7631 20.5994 52.7543C20.6173 52.7455 20.637 52.7409 20.6569 52.7409H49.4386C49.4697 52.7398 49.5003 52.7493 49.5253 52.7677C49.5503 52.7861 49.5684 52.8123 49.5765 52.8422C49.5807 52.8612 49.5806 52.8808 49.5762 52.8997C49.5717 52.9186 49.5631 52.9363 49.5509 52.9514C49.5387 52.9666 49.5232 52.9788 49.5056 52.9872C49.488 52.9956 49.4688 52.9999 49.4493 53Z" fill="#CCCCCC"/>
<path d="M54.89 33.8864H44.0963C44.0694 33.8887 44.0427 33.8804 44.0219 33.8633C44.0011 33.8462 43.9879 33.8216 43.9851 33.795V25.1347C43.9879 25.108 44.0011 25.0835 44.0219 25.0664C44.0427 25.0493 44.0694 25.041 44.0963 25.0432H54.89C54.9168 25.041 54.9435 25.0493 54.9643 25.0664C54.9851 25.0835 54.9983 25.108 55.0011 25.1347V33.795C54.9983 33.8216 54.9851 33.8462 54.9643 33.8633C54.9435 33.8804 54.9168 33.8887 54.89 33.8864V33.8864Z" fill="#F0F0F0"/>
<path d="M53.7168 26.0015H45.2696C45.2401 26.0015 45.2119 26.0132 45.1911 26.0339C45.1702 26.0546 45.1585 26.0827 45.1584 26.112V32.6227C45.1585 32.652 45.1702 32.6801 45.1911 32.7008C45.2119 32.7215 45.2401 32.7332 45.2696 32.7332H53.7168C53.7463 32.7332 53.7746 32.7215 53.7954 32.7008C53.8162 32.6801 53.828 32.652 53.828 32.6227V26.112C53.828 26.0827 53.8162 26.0546 53.7954 26.0339C53.7746 26.0132 53.7463 26.0015 53.7168 26.0015V26.0015Z" fill="white"/>
<path d="M49.2845 30.4132C49.8777 30.4132 50.3585 29.9348 50.3585 29.3448C50.3585 28.7548 49.8777 28.2765 49.2845 28.2765C48.6913 28.2765 48.2104 28.7548 48.2104 29.3448C48.2104 29.9348 48.6913 30.4132 49.2845 30.4132Z" fill="#FBFBFB"/>
<path d="M50.8559 32.7332H48.4746L48.5524 30.9917L48.5709 30.9724L48.8382 30.6915H49.6885L50.0038 30.9952L50.0292 31.0198L50.7003 31.6596L50.8559 32.7332Z" fill="#C6C6C6"/>
<path d="M48.8842 32.7332H47.0826C47.0782 32.3401 47.0757 32.1047 47.0757 32.1047L47.1799 32.0416L47.1804 32.0414H47.1807L48.3287 31.348L48.5698 30.9586L48.571 30.9724L48.6419 31.7932C48.6419 31.7932 48.759 32.1696 48.8842 32.7332Z" fill="#373737"/>
<path d="M51.9119 32.7332H50.0036C50.0325 31.5868 49.8769 30.9586 49.957 30.9586L50.0036 30.9952L50.5661 31.437L51.3073 31.7075H51.3078L51.8188 31.8939L51.9085 31.9266V31.9686C51.9087 32.0694 51.9092 32.3448 51.9119 32.7332Z" fill="#373737"/>
<path d="M48.2683 29.6791C48.2683 29.6791 48.3596 29.5197 48.3384 28.9872C48.3171 28.4546 49.1324 28.7558 49.8136 28.705C50.4948 28.6542 50.3506 29.5941 50.3506 29.5941C50.3506 29.5941 50.3997 29.5382 50.5049 29.0846C50.6102 28.631 50.3712 28.179 50.3712 28.179C50.3009 27.7023 49.9217 27.8551 49.9217 27.8551C49.9696 27.8672 50.0113 27.8967 50.0386 27.9377C50.0659 27.9787 50.0768 28.0284 50.0692 28.077C49.9147 27.8074 49.5355 27.9602 49.5355 27.9602C49.0297 27.6445 48.5172 28.0602 48.5172 28.0602C47.9062 28.1982 48.2645 28.6814 48.2645 28.6814C47.6501 28.9903 48.2683 29.6791 48.2683 29.6791Z" fill="#373737"/>
<path d="M47.3231 32.7332H46.5828C46.5886 32.6425 46.5887 32.5515 46.5833 32.4608C46.5391 32.2856 47.161 32.0488 47.1798 32.0416L47.1803 32.0414H47.1805L47.2991 32.1048L47.3231 32.7332Z" fill="#373737"/>
<path d="M52.0458 32.7332H51.2682L51.1711 31.7799L51.2801 31.7008C51.2801 31.7008 51.29 31.703 51.3075 31.7074H51.308C51.4856 31.7476 51.6574 31.8103 51.819 31.8939C51.8533 31.9131 51.8837 31.9384 51.9087 31.9686C51.924 31.9868 51.9316 32.0103 51.9299 32.034C51.926 32.0696 51.9714 32.332 52.0458 32.7332Z" fill="#373737"/>
<path d="M54.8548 22.8367H44.0611C44.0342 22.839 44.0075 22.8307 43.9867 22.8135C43.966 22.7964 43.9528 22.7719 43.95 22.7452V14.0819C43.9528 14.0552 43.966 14.0306 43.9867 14.0135C44.0075 13.9964 44.0342 13.9881 44.0611 13.9904H54.8548C54.8817 13.9881 54.9084 13.9964 54.9292 14.0135C54.9499 14.0306 54.9632 14.0552 54.966 14.0819V22.7452C54.9632 22.7719 54.9499 22.7964 54.9292 22.8135C54.9084 22.8307 54.8817 22.839 54.8548 22.8367V22.8367Z" fill="#F0F0F0"/>
<path d="M53.6817 14.9486H45.2344C45.205 14.9487 45.1767 14.9603 45.1559 14.981C45.1351 15.0018 45.1233 15.0299 45.1233 15.0592V21.5698C45.1233 21.5991 45.1351 21.6272 45.1559 21.6479C45.1767 21.6687 45.205 21.6803 45.2344 21.6804H53.6817C53.7112 21.6803 53.7394 21.6687 53.7602 21.6479C53.7811 21.6272 53.7928 21.5991 53.7928 21.5698V15.0592C53.7928 15.0299 53.7811 15.0018 53.7602 14.981C53.7394 14.9603 53.7112 14.9487 53.6817 14.9486V14.9486Z" fill="white"/>
<path d="M51.5373 21.6804C51.585 21.5096 51.622 21.3625 51.641 21.2583C51.6469 21.2262 51.6475 21.1933 51.6428 21.161C51.5716 20.6576 50.2868 20.2321 50.122 20.1795L50.0823 19.7412L48.4649 19.568L48.2602 20.1286L47.6797 20.3451C47.6587 20.3528 47.6387 20.363 47.6202 20.3756C47.5715 20.4083 47.5341 20.455 47.5129 20.5095C47.4918 20.564 47.4879 20.6237 47.5019 20.6805L47.7491 21.6804H51.5373L51.5373 21.6804Z" fill="#C6C6C6"/>
<path d="M48.1844 21.6803H46.9294C46.9744 21.4017 47.0147 21.1553 47.0408 20.9985C47.1367 20.4281 47.5546 20.3794 47.62 20.3755C47.6252 20.375 47.6284 20.375 47.6287 20.375H47.8927L48.1844 21.6803Z" fill="#C6C6C6"/>
<path d="M51.5374 21.6804H51.8417C51.8269 21.4918 51.7579 21.3115 51.6428 21.161C51.5851 21.0852 51.5107 21.0235 51.4252 20.9809L51.4023 20.9711L51.1348 21.6804H51.5374Z" fill="#C6C6C6"/>
<path d="M49.2104 19.2905C49.8535 19.2905 50.3749 18.7719 50.3749 18.1322C50.3749 17.4925 49.8535 16.9739 49.2104 16.9739C48.5673 16.9739 48.0459 17.4925 48.0459 18.1322C48.0459 18.7719 48.5673 19.2905 49.2104 19.2905Z" fill="#EFEFEF"/>
<path d="M48.4287 17.5679C48.5492 17.7098 48.7532 17.7498 48.9414 17.7661C49.3814 17.7903 49.8226 17.7545 50.2528 17.6596C50.2796 17.9166 50.2068 18.1937 50.359 18.4051C50.4303 18.1492 50.4718 17.8859 50.4826 17.6206C50.4939 17.5067 50.479 17.3918 50.4389 17.2845C50.4175 17.2308 50.3813 17.1841 50.3345 17.1498C50.2877 17.1155 50.2322 17.0949 50.1742 17.0904C50.261 17.025 50.3626 16.9818 50.4701 16.9646L50.1004 16.7798L50.1953 16.6828L49.5259 16.6421L49.7198 16.5196C49.4279 16.4797 49.1326 16.4705 48.8387 16.492C48.7014 16.4921 48.5667 16.5293 48.4491 16.5998C48.3386 16.6784 48.2747 16.8346 48.3434 16.95C48.2575 16.9641 48.1766 16.9997 48.1084 17.0535C48.0402 17.1073 47.987 17.1776 47.9537 17.2576C47.9116 17.3848 47.9015 17.5203 47.9241 17.6523C47.9493 17.8641 47.9988 18.0723 48.0716 18.2729" fill="#373737"/>
<path d="M15.1624 33.6443V14.0544C15.1693 13.9936 15.1998 13.938 15.2475 13.8993C15.2951 13.8606 15.3561 13.842 15.4173 13.8475H40.18C40.2413 13.842 40.3022 13.8606 40.3499 13.8993C40.3975 13.938 40.4281 13.9936 40.435 14.0544V33.6443C40.4281 33.705 40.3975 33.7607 40.3499 33.7994C40.3022 33.8381 40.2413 33.8567 40.18 33.8512H15.4173C15.3561 33.8567 15.2951 33.8381 15.2475 33.7994C15.1998 33.7607 15.1693 33.705 15.1624 33.6443V33.6443Z" fill="#E4E4E4"/>
<path d="M17.854 16.2994V31.236C17.8541 31.3032 17.881 31.3677 17.9288 31.4152C17.9766 31.4628 18.0414 31.4895 18.109 31.4896H37.4885C37.5561 31.4895 37.6209 31.4628 37.6687 31.4152C37.7165 31.3677 37.7434 31.3032 37.7435 31.236V16.2994C37.7434 16.2322 37.7165 16.1677 37.6687 16.1202C37.6209 16.0726 37.5561 16.0459 37.4885 16.0458H18.109C18.0414 16.0459 17.9766 16.0726 17.9288 16.1202C17.881 16.1677 17.8541 16.2322 17.854 16.2994V16.2994Z" fill="white"/>
<path d="M25.8918 31.4897H29.7921L29.549 27.8609L28.142 28.1839L26.7736 27.6603L26.7373 27.6468L26.735 27.6456C26.7345 27.6467 26.7341 27.6478 26.7339 27.649C26.7124 27.7353 26.2828 29.4459 25.8918 31.4897Z" fill="#C6C6C6"/>
<path d="M23.5413 28.4534L23.9056 31.4897H27.1928L26.7735 27.6603L26.7695 27.623L26.7372 27.6467L26.7338 27.649L25.9229 28.2375L23.5413 28.4534Z" fill="#373737"/>
<path d="M29.2153 31.4896H32.1591L32.2016 29.0992L30.0353 28.3845L29.5491 27.8608C29.5491 27.8608 29.3955 29.4362 29.2153 31.4896Z" fill="#373737"/>
<path d="M22.1243 31.4896H24.5637L24.4073 29.3145L23.5415 28.4532C23.5415 28.4532 22.8564 29.8826 22.1243 31.4896Z" fill="#373737"/>
<path d="M31.4648 31.4897H32.7517C32.746 30.793 32.7426 30.3116 32.7426 30.1758C32.7491 29.9658 32.703 29.7575 32.6086 29.5696C32.5141 29.3817 32.3742 29.2201 32.2015 29.0992L31.5515 29.3146L31.4648 31.4897Z" fill="#373737"/>
<path d="M31.6656 26.719H24.8467V23.8602C24.8467 22.8805 25.5406 21.7026 26.3935 21.2344C27.5907 20.5774 28.8995 20.5659 29.9843 21.2029C30.4949 21.5036 30.9182 21.9311 31.213 22.4434C31.5077 22.9557 31.6637 23.5353 31.6656 24.1256V26.719Z" fill="#373737"/>
<path d="M30.5522 25.3738C31.2047 24.1866 30.766 22.698 29.5725 22.049C28.3789 21.4 26.8824 21.8363 26.23 23.0236C25.5775 24.2108 26.0162 25.6993 27.2097 26.3483C28.4033 26.9973 29.8998 26.561 30.5522 25.3738Z" fill="#FBFBFB"/>
<path d="M30.7322 24.3251H27.2184L27.2101 24.2854C27.1694 24.0771 27.1169 23.8712 27.0527 23.6688C26.9132 23.8722 26.7845 24.0827 26.6672 24.2995L26.6529 24.3251H25.9698C25.9279 24.3251 25.8864 24.3164 25.8481 24.2995C25.8097 24.2826 25.7754 24.258 25.7471 24.2272C25.7286 24.2068 25.6851 24.1592 25.865 21.9745C25.8699 21.9225 25.8884 21.8727 25.9185 21.8299C25.9487 21.7871 25.9895 21.7528 26.037 21.7304C27.5787 21.0145 29.141 21.0334 30.681 21.787H30.7084L30.7181 21.825C31.0219 24.1502 30.9782 24.2004 30.9595 24.2219C30.9313 24.2543 30.8964 24.2803 30.8571 24.2981C30.8179 24.3159 30.7753 24.3251 30.7322 24.3251Z" fill="#373737"/>
</g>
<defs>
<clipPath id="clip0_181_47">
<rect width="72" height="53" fill="white"/>
</clipPath>
</defs>
</svg>
