<svg width="59" height="44" viewBox="0 0 59 44" fill="none" xmlns="http://www.w3.org/2000/svg">
<g clip-path="url(#clip0_181_210)">
<path opacity="0.4" d="M49.7956 16.9163C50.5763 16.9163 51.2093 16.2883 51.2093 15.5136C51.2093 14.7389 50.5763 14.1108 49.7956 14.1108C49.0148 14.1108 48.3818 14.7389 48.3818 15.5136C48.3818 16.2883 49.0148 16.9163 49.7956 16.9163Z" fill="#6C63FF"/>
<path opacity="0.4" d="M19.9884 9.19888C21.1015 9.19888 22.0037 8.30361 22.0037 7.19923C22.0037 6.09486 21.1015 5.19958 19.9884 5.19958C18.8754 5.19958 17.9731 6.09486 17.9731 7.19923C17.9731 8.30361 18.8754 9.19888 19.9884 9.19888Z" fill="#6C63FF"/>
<path opacity="0.4" d="M16.2589 9.55706C17.0397 9.55706 17.6726 8.92904 17.6726 8.15432C17.6726 7.37961 17.0397 6.75159 16.2589 6.75159C15.4782 6.75159 14.8452 7.37961 14.8452 8.15432C14.8452 8.92904 15.4782 9.55706 16.2589 9.55706Z" fill="#6C63FF"/>
<path d="M50.9794 31.1997C49.8623 32.4132 49.8218 34.1808 49.8218 34.1808C49.8218 34.1808 51.5923 33.981 52.7093 32.7676C53.8264 31.5541 53.8669 29.7865 53.8669 29.7865C53.8669 29.7865 52.0964 29.9863 50.9794 31.1997Z" fill="#3F3D56"/>
<path d="M51.6107 31.5489C51.2727 33.1578 49.8519 34.2248 49.8519 34.2248C49.8519 34.2248 48.979 32.6833 49.3171 31.0745C49.6551 29.4656 51.0759 28.3986 51.0759 28.3986C51.0759 28.3986 51.9487 29.94 51.6107 31.5489Z" fill="#6C63FF"/>
<path d="M50.1596 14.9475V34.1267L43.7165 39.408H10.7539V19.3022L20.3719 14.9475H50.1596Z" fill="#3F3D56"/>
<path opacity="0.1" d="M50.1596 14.9475V15.0244L47.8466 16.5606L43.7165 19.3022H10.7539L20.3719 14.9475H50.1596Z" fill="black"/>
<path opacity="0.1" d="M50.1599 14.9475V34.1267L43.7168 39.408L43.7635 19.2559L47.8469 16.5606L50.1226 14.9475H50.1599Z" fill="black"/>
<path d="M41.4757 17.5882H21.3994L22.8935 16.7543H42.1295L41.4757 17.5882Z" fill="#2F2E41"/>
<path d="M58.803 40.4513C58.803 40.4513 59.1922 42.0662 58.8384 42.1365C58.4846 42.2067 56.7508 42.184 56.3262 42.2542C55.9016 42.3244 55.0171 42.2067 55.0171 41.8907C55.0171 41.5747 55.937 41.3641 55.937 41.3641C55.937 41.3641 57.2462 40.6619 57.2816 40.6268C57.3169 40.5917 58.803 40.4513 58.803 40.4513Z" fill="#2F2E41"/>
<path d="M58.4843 30.9371C58.4843 30.9371 58.3782 32.1308 58.3782 32.2361C58.3782 32.3414 58.4843 33.9915 58.3782 34.0617C58.272 34.1319 58.449 34.6234 58.449 34.799C58.449 34.9745 59.0151 37.8884 58.8735 39.0119C58.732 40.1353 59.0858 40.03 58.9797 40.1353C58.8735 40.2406 58.8735 40.2406 58.8735 40.4513C58.8735 40.6619 57.7413 40.8375 57.7413 40.8375L56.5029 33.0787L57.1398 30.7616L58.4843 30.9371Z" fill="#575A89"/>
<path opacity="0.1" d="M58.4843 30.9371C58.4843 30.9371 58.3782 32.1308 58.3782 32.2361C58.3782 32.3414 58.4843 33.9915 58.3782 34.0617C58.272 34.1319 58.449 34.6234 58.449 34.799C58.449 34.9745 59.0151 37.8884 58.8735 39.0119C58.732 40.1353 59.0858 40.03 58.9797 40.1353C58.8735 40.2406 58.8735 40.2406 58.8735 40.4513C58.8735 40.6619 57.7413 40.8375 57.7413 40.8375L56.5029 33.0787L57.1398 30.7616L58.4843 30.9371Z" fill="black"/>
<path d="M58.3076 40.9428C58.3076 40.9428 58.6614 42.2067 58.3076 42.2769C57.9538 42.3471 56.2201 42.1964 55.7955 42.2667C55.3709 42.3369 54.4863 42.3471 54.4863 42.0311C54.4863 41.7152 55.4063 41.5045 55.4063 41.5045C55.4063 41.5045 56.7154 40.8024 56.7508 40.7673C56.7862 40.7321 58.3076 40.9428 58.3076 40.9428Z" fill="#2F2E41"/>
<path d="M58.8028 29.5328C58.8028 29.5328 59.2274 30.551 58.732 31.0776C58.2367 31.6042 57.6706 32.6574 57.6706 32.7276C57.6706 32.7978 58.6613 39.7843 58.5197 40.2407C58.3782 40.6971 58.4136 40.9779 58.449 41.0481C58.4844 41.1183 58.0952 41.5045 57.6706 41.5045C57.246 41.5045 56.6091 41.1886 56.5383 40.9077C56.4676 40.6268 56.6445 38.2044 56.6091 37.748C56.5737 37.2916 56.3968 36.6246 56.326 36.4841C56.2553 36.3437 55.8661 36.2033 55.7953 35.782C55.7245 35.3607 55.1584 29.9892 55.3353 29.8137C55.5123 29.6382 58.8028 29.5328 58.8028 29.5328Z" fill="#575A89"/>
<path d="M56.1136 21.458C56.778 21.458 57.3166 20.9236 57.3166 20.2643C57.3166 19.6051 56.778 19.0707 56.1136 19.0707C55.4492 19.0707 54.9106 19.6051 54.9106 20.2643C54.9106 20.9236 55.4492 21.458 56.1136 21.458Z" fill="#E6E6E6"/>
<path d="M56.8567 20.8612C56.8567 20.8612 56.609 22.1601 56.7859 22.3006C56.9628 22.441 55.4414 22.6516 55.4414 22.6516C55.4414 22.6516 55.2645 20.9314 55.2291 20.7558C55.1937 20.5803 56.8567 20.8612 56.8567 20.8612Z" fill="#E6E6E6"/>
<path d="M55.2294 22.5464C55.2294 22.5464 55.6539 21.3176 57.3877 21.6687C57.3877 21.6687 57.7061 21.774 57.6 21.8793C57.4938 21.9846 57.3877 21.9846 57.5292 22.09C57.6707 22.1953 57.8476 22.09 57.7415 22.1953C57.6354 22.3006 58.6968 22.9325 58.6261 24.1262C58.5553 25.3199 58.8737 27.005 58.6261 27.2859C58.3784 27.5668 58.803 28.7955 58.7322 29.0413C58.6614 29.287 59.1568 29.603 58.9445 29.7083C58.7322 29.8136 54.9109 30.4456 54.8048 29.7083C54.6986 28.9711 54.7694 29.4977 54.6632 29.3221C54.5571 29.1466 54.5217 28.8306 54.5925 28.4444C54.6632 28.0583 54.8402 27.1104 54.7694 26.7593C54.6986 26.4082 54.7694 23.4592 54.9817 23.1081C55.194 22.757 55.2294 22.5464 55.2294 22.5464Z" fill="#6C63FF"/>
<path d="M55.9721 31.1126C55.9721 31.1126 56.5028 33.1137 55.8306 33.1137C55.1583 33.1137 55.1937 31.0424 55.1937 31.0424L55.9721 31.1126Z" fill="#E6E6E6"/>
<path d="M55.583 20.2644C55.583 20.3662 55.7316 20.4308 55.962 20.4456H55.9623C56.06 20.4511 56.1579 20.4492 56.2553 20.44C56.4025 20.4266 56.4633 20.5639 56.4884 20.745C56.5295 21.0438 56.4722 21.4626 56.5383 21.5283C56.6296 21.6189 57.2952 21.5279 57.5032 21.3226C57.5356 21.2937 57.5572 21.2549 57.5644 21.2123C57.5862 21.0869 57.6486 20.9719 57.742 20.8848C57.8648 20.7517 58.0396 20.6043 58.2367 20.3697C58.5905 19.9484 58.2367 19.9133 58.1305 19.5974C58.0244 19.2814 57.8475 19.1761 57.8475 18.9654C57.8475 18.7548 57.0337 18.5793 56.3614 18.6144C55.6892 18.6495 55.8307 19.492 55.8307 19.492C55.8307 19.492 55.7907 19.5939 55.7429 19.7252C55.6783 19.8899 55.6258 20.0591 55.5858 20.2314C55.5842 20.2423 55.5832 20.2534 55.583 20.2644V20.2644Z" fill="#2F2E41"/>
<path opacity="0.1" d="M55.7246 23.073C55.7246 23.073 56.9276 23.0028 57.0338 24.7582C57.1399 26.5136 57.1045 28.1636 57.1045 28.1987C57.1045 28.2338 56.6092 31.5691 56.1492 31.5691C55.6892 31.5691 55.3354 31.4988 55.2293 31.3233C55.1231 31.1478 55.5123 28.62 55.5123 28.62C55.5123 28.62 55.6892 25.9518 55.4062 25.1093C55.1231 24.2667 55.0877 23.1783 55.7246 23.073Z" fill="black"/>
<path d="M55.5479 22.8975C55.5479 22.8975 56.7509 22.8273 56.857 24.5826C56.9632 26.338 56.9278 27.9881 56.9278 28.0232C56.9278 28.0583 56.4324 31.3935 55.9725 31.3935C55.5125 31.3935 55.1587 31.3233 55.0525 31.1478C54.9464 30.9722 55.3356 28.4445 55.3356 28.4445C55.3356 28.4445 55.5125 25.7763 55.2294 24.9337C54.9464 24.0911 54.911 23.0028 55.5479 22.8975Z" fill="#6C63FF"/>
<path d="M35.5992 5.73643C35.5992 5.73643 35.0749 4.26253 34.6962 4.72493C34.3176 5.18733 35.2788 5.96763 35.2788 5.96763L35.5992 5.73643Z" fill="#DFDFDF"/>
<path d="M38.0752 4.29138L37.7598 4.40736C37.7598 4.40736 37.6092 5.07169 37.6674 5.18729C37.7257 5.30289 37.7548 5.21619 37.6674 5.44739C37.5801 5.67859 37.3179 6.28549 37.2888 6.37219C37.2597 6.45889 35.5995 5.82309 35.5995 5.50519C35.5995 5.50519 35.25 5.90979 35.0752 5.99649C35.0752 5.99649 36.9975 7.3837 37.2597 7.5571C37.5218 7.7305 37.6674 7.6438 37.9004 7.4415C38.1335 7.2392 39.1237 5.56299 39.1237 5.56299L38.0752 4.29138Z" fill="#575A89"/>
<path d="M37.2306 14.551C37.2306 14.551 37.2597 14.8689 37.318 14.8978C37.3762 14.9267 37.8131 15.6492 37.318 15.7937C36.8228 15.9382 36.5316 15.8804 36.4151 15.9382C36.2986 15.996 34.2597 16.1116 34.2306 15.7937C34.2015 15.4758 35.2209 15.418 35.2209 15.418C35.2209 15.418 36.1529 14.8111 36.2986 14.4932C36.4442 14.1753 37.2306 14.551 37.2306 14.551Z" fill="#2F2E41"/>
<path d="M43.1432 15.1289C43.1432 15.1289 43.8422 16.3138 43.6674 16.4583C43.4927 16.6028 41.7908 17.1294 41.5412 17.1519C41.2208 17.1808 40.9878 16.9207 41.25 16.7762C41.5121 16.6317 42.0655 16.0248 42.0655 15.8225V15.3023L43.1432 15.1289Z" fill="#2F2E41"/>
<path d="M43.8129 7.38379C43.8129 7.38379 44.4245 8.13519 43.4634 9.349L41.8614 11.372C41.8614 11.372 42.8517 12.9326 42.8808 13.7418C42.91 14.551 43.1138 14.3776 43.1721 14.7244C43.2303 15.0712 43.4925 14.8978 43.2886 15.1579C43.0847 15.418 42.3274 15.6492 42.0944 15.4469C42.0143 15.3742 41.9517 15.2844 41.9113 15.1843C41.871 15.0843 41.8539 14.9765 41.8614 14.8689C41.8614 14.7533 41.4536 14.0886 41.4245 13.8863C41.3954 13.684 40.3177 12.0367 40.3177 12.0367C40.3177 12.0367 39.9682 11.0541 40.376 10.505C40.7837 9.9559 41.0532 9.17712 41.0532 9.17712C41.0532 9.17712 39.8517 10.6206 39.007 10.9674C39.007 10.9674 38.6866 11.0252 38.7449 11.1697C38.8032 11.3142 38.7449 11.4009 38.6575 11.5454C38.5701 11.6899 37.9585 13.3661 37.7546 13.7996C37.5507 14.2331 37.6381 14.4932 37.4051 14.6377C37.1721 14.7822 36.1235 14.6666 36.1235 14.5221C36.1235 14.3776 36.2692 14.0019 36.3565 13.7996C36.4439 13.5973 37.143 11.2564 37.0847 10.8518C37.0265 10.4472 37.1138 9.8981 37.5507 9.6669C37.9876 9.4357 40.2012 7.55719 40.3177 7.55719C40.4342 7.55719 43.8129 7.38379 43.8129 7.38379Z" fill="#2F2E41"/>
<path d="M37.9587 2.84643C38.6343 2.84643 39.182 2.303 39.182 1.63263C39.182 0.962263 38.6343 0.418823 37.9587 0.418823C37.283 0.418823 36.7354 0.962263 36.7354 1.63263C36.7354 2.303 37.283 2.84643 37.9587 2.84643Z" fill="#DFDFDF"/>
<path d="M38.9489 1.74817C38.9489 1.74817 39.3276 2.41287 39.7936 2.49958C40.2596 2.58628 38.5703 3.91568 38.5703 3.91568C38.5703 3.91568 38.1625 2.64408 37.813 2.58628C37.4635 2.52848 38.9489 1.74817 38.9489 1.74817Z" fill="#DFDFDF"/>
<path d="M37.7549 4.46478C37.7549 4.84049 38.8908 5.90979 38.8908 5.90979L39.9685 6.80569C39.9685 6.80569 39.9976 7.12359 40.1141 7.15249C40.2306 7.18139 40.3762 7.18139 40.2597 7.35479C40.1432 7.52819 39.852 7.9039 40.1141 7.9617C40.1931 7.97362 40.2728 7.98115 40.3527 7.98424C40.4226 7.98829 40.5047 7.99204 40.597 7.99551C40.8126 8.00302 41.0823 8.00794 41.3744 8.00591C41.4574 8.00562 41.5419 8.00466 41.6278 8.00302C42.7291 7.98135 44.0048 7.85563 43.9005 7.44149C43.7258 6.74789 43.8423 6.51669 43.4636 6.14099C43.085 5.76529 42.4733 4.46478 42.4733 4.46478C42.4733 4.46478 41.25 2.41287 40.2306 2.41287L40.0189 2.35767C39.9205 2.33195 39.8164 2.33759 39.7214 2.3738C39.6265 2.41 39.5454 2.47493 39.4896 2.55939C39.2852 2.86834 38.9627 3.33247 38.7743 3.48217C38.483 3.71338 38.4376 3.54749 38.4376 3.54749C38.4376 3.54749 37.7549 4.08908 37.7549 4.46478Z" fill="#575A89"/>
<path d="M40.3469 8.85767C40.3469 8.85767 39.5023 10.1582 40.0265 10.3894C40.5508 10.6206 40.8421 9.03107 40.8421 9.03107L40.3469 8.85767Z" fill="#DFDFDF"/>
<path d="M38.7585 1.4955C38.7116 1.48962 38.6967 1.43084 38.6888 1.38454C38.6465 1.13663 38.4603 0.901544 38.2101 0.861523C38.1145 0.8489 38.0173 0.856676 37.9249 0.88433C37.7926 0.920352 37.6684 0.981006 37.5589 1.06306C37.5054 1.11164 37.4434 1.15024 37.3761 1.17701C37.3302 1.19038 37.1353 1.27636 37.0897 1.29091C36.9896 1.32289 36.9067 1.42688 36.8036 1.40629C36.705 1.38659 36.6675 1.26839 36.6516 1.16979C36.6155 0.94515 36.7451 0.609975 36.8739 0.421816C36.9717 0.27903 37.1372 0.196855 37.3026 0.143395C37.4964 0.0850259 37.6955 0.0457669 37.8971 0.0261876C38.1692 -0.00569821 38.451 -0.0226153 38.7117 0.0608386C38.9725 0.144293 39.2099 0.34844 39.2586 0.615978C39.2688 0.671708 39.2707 0.728791 39.2831 0.784064C39.3134 0.918902 39.4033 1.03224 39.4558 1.16022C39.4936 1.2542 39.5112 1.35501 39.5073 1.45615C39.5035 1.55729 39.4784 1.65651 39.4335 1.74741C39.3609 1.89233 39.2346 2.03159 39.2618 2.19117L39.0371 2.01532C39.0046 1.997 38.9794 1.96819 38.9658 1.93369C38.9521 1.89919 38.9508 1.86109 38.962 1.82574L38.9947 1.54649C39.006 1.4959 39.0009 1.44305 38.9801 1.39551C38.8802 1.22235 38.8368 1.5053 38.7585 1.4955Z" fill="#2F2E41"/>
<path opacity="0.1" d="M40.8714 6.86349L40.597 7.99551C40.8737 8.00534 41.2398 8.01054 41.6278 8.00303C41.7257 7.71171 41.8191 7.40797 41.8908 7.1236C42.1529 6.08319 41.716 4.49368 41.483 3.74228C41.25 2.99088 40.6675 2.78857 40.6675 2.78857C40.4287 2.87191 40.2031 2.98869 39.9976 3.13538C39.6189 3.39548 40.8714 6.86349 40.8714 6.86349Z" fill="black"/>
<path opacity="0.1" d="M40.6383 6.80571L40.3525 7.98425C40.4224 7.9883 40.5046 7.99206 40.5969 7.99552C40.8124 8.00304 41.0821 8.00795 41.3743 8.00593C41.4794 7.69641 41.5811 7.36984 41.6577 7.0658C41.9198 6.0254 41.4829 4.43589 41.2499 3.68449C41.0169 2.93309 40.5072 3.75674 40.5072 3.75674C40.5072 3.75674 40.7111 3.26543 40.3324 3.52554C39.9538 3.78564 40.6383 6.80571 40.6383 6.80571Z" fill="black"/>
<path d="M40.5508 2.73083C40.5508 2.73083 41.1333 2.93314 41.3663 3.68454C41.5993 4.43594 42.0362 6.02545 41.7741 7.06585C41.512 8.10626 40.9586 9.40677 40.9586 9.40677C40.9586 9.40677 40.4052 9.00216 40.2013 9.08886L40.7547 6.80575C40.7547 6.80575 39.5022 3.33774 39.8809 3.07764C40.0864 2.93095 40.312 2.81417 40.5508 2.73083V2.73083Z" fill="#575A89"/>
<path d="M40.985 17.2269L32.9267 0.564941L19.4526 6.98069L24.4081 17.2269H40.985Z" fill="#F2F2F2"/>
<path d="M30.2 7.10507L23.0435 10.5127L23.2566 10.9534L30.4132 7.54582L30.2 7.10507Z" fill="#3F3D56"/>
<path d="M32.0946 11.0229L24.938 14.4305L25.1512 14.8713L32.3077 11.4637L32.0946 11.0229Z" fill="#3F3D56"/>
<path d="M33.3959 4.79996L31.6191 5.646L32.4718 7.40901L34.2486 6.56297L33.3959 4.79996Z" fill="#3F3D56"/>
<path d="M35.291 8.71769L33.5142 9.56372L34.3668 11.3267L36.1436 10.4807L35.291 8.71769Z" fill="#3F3D56"/>
<path d="M33.5187 3.57874L32.7869 5.64456L31.8005 5.30053L31.6655 5.68161L33.0347 6.15906L33.9027 3.71267L33.5187 3.57874Z" fill="#57B894"/>
<path d="M35.4132 7.49658L34.6814 9.5624L33.695 9.21844L33.5601 9.59946L34.9292 10.0769L35.7972 7.63052L35.4132 7.49658Z" fill="#57B894"/>
<path d="M0.777781 36.4037L4.41846 35.6321L3.64078 32.0197L0.00010275 32.7913L0.777781 36.4037Z" fill="#F2F2F2"/>
<path d="M4.31693 31.0546C4.31693 31.0546 2.9797 32.0023 3.42544 32.3814C3.87118 32.7605 4.76267 31.2441 4.76267 31.2441L4.31693 31.0546Z" fill="#E6E6E6"/>
<path d="M10.494 32.5078C10.494 32.5078 10.2393 35.6669 10.1756 36.1092C10.1119 36.5515 10.0483 40.532 9.9209 40.9743C9.79355 41.4166 9.66619 42.4907 9.66619 42.4907H8.90206C8.90206 42.4907 8.96574 40.532 8.77471 39.7738C8.58367 39.0156 8.64735 36.9306 8.64735 36.9306C8.64735 36.9306 8.26529 33.2028 8.45632 32.6973C8.64736 32.1919 10.494 32.5078 10.494 32.5078Z" fill="#E6E6E6"/>
<path d="M9.47478 42.3011C9.47478 42.3011 9.79317 42.4907 9.79317 42.6171C9.79317 42.7434 9.72949 43.0593 9.79317 43.1857C9.85685 43.3121 10.3026 43.8175 10.0479 43.9439C9.79317 44.0703 8.64697 43.9439 8.64697 43.9439C8.64697 43.9439 8.71065 43.0593 8.77433 42.9962C8.838 42.933 8.71065 42.3011 8.71065 42.3011H9.47478Z" fill="#2F2E41"/>
<path d="M5.62594 32.4303C5.62594 32.4303 5.54504 35.5985 5.56158 36.045C5.57812 36.4915 5.22035 40.4566 5.30022 40.9098C5.38008 41.3629 5.3931 42.4443 5.3931 42.4443L6.15301 42.5239C6.15301 42.5239 6.29689 40.5694 6.56708 39.8353C6.83726 39.1012 6.99451 37.021 6.99451 37.021C6.99451 37.021 7.76882 33.3536 7.63231 32.831C7.4958 32.3085 5.62594 32.4303 5.62594 32.4303Z" fill="#E6E6E6"/>
<path d="M5.60307 42.2758C5.60307 42.2758 5.26639 42.4311 5.25302 42.5568C5.23965 42.6824 5.26956 43.0032 5.19286 43.1223C5.11617 43.2413 4.61942 43.6976 4.85935 43.8498C5.09929 44.002 6.25252 43.9957 6.25252 43.9957C6.25252 43.9957 6.28277 43.1093 6.22613 43.0399C6.16949 42.9704 6.36298 42.3553 6.36298 42.3553L5.60307 42.2758Z" fill="#2F2E41"/>
<path d="M9.60256 27.769C9.60256 27.769 10.112 27.8322 10.303 28.9063C10.494 29.9805 11.1945 32.6973 10.6214 32.8869C10.0483 33.0764 8.32901 33.4555 8.26533 33.3292C8.20165 33.2028 8.0743 32.8869 8.0743 32.8869C8.0743 32.8869 8.26533 33.4555 8.01062 33.4555C7.75591 33.4555 5.27249 33.0764 5.33616 32.8869C5.39984 32.6973 5.52719 31.3073 5.52719 31.3073C5.52719 31.3073 5.90926 28.9695 6.29133 28.5904C6.4019 28.4851 6.48774 28.3569 6.54277 28.2149C6.5978 28.073 6.62065 27.9207 6.60971 27.769H9.60256Z" fill="#2F2E41"/>
<path d="M10.5573 27.2635C10.5573 27.2635 9.72947 27.074 9.60212 27.3267C9.47476 27.5795 9.9205 27.9586 10.1115 27.9586C10.3026 27.9586 10.621 27.769 10.621 27.769L10.5573 27.2635Z" fill="#E6E6E6"/>
<path d="M8.83809 21.893C9.47112 21.893 9.98429 21.3838 9.98429 20.7557C9.98429 20.1276 9.47112 19.6184 8.83809 19.6184C8.20506 19.6184 7.69189 20.1276 7.69189 20.7557C7.69189 21.3838 8.20506 21.893 8.83809 21.893Z" fill="#E6E6E6"/>
<path d="M8.64726 21.577C8.64726 21.577 8.45623 22.4616 8.58358 22.4616C8.71093 22.4616 7.62842 23.0302 7.62842 23.0302L6.80061 22.9039L6.5459 22.5248C6.5459 22.5248 7.88313 21.6402 7.88313 21.1347C7.88313 20.6293 8.64726 21.577 8.64726 21.577Z" fill="#E6E6E6"/>
<path d="M8.07398 22.4616C8.07398 22.4616 8.26501 22.3352 8.32869 22.3352H8.83811C8.90179 22.3352 9.7296 22.5248 9.7296 22.5248L10.239 25.368C10.239 25.368 9.34754 26.8212 9.98431 27.9585C9.98431 27.9585 9.79328 27.8321 8.90179 27.8953C8.01031 27.9585 6.41837 28.1481 6.35469 28.1481C6.29101 28.1481 6.29101 27.6426 6.35469 27.5162C6.41837 27.3899 6.29101 27.453 6.29101 27.1371C6.29101 26.8212 6.09998 26.2526 6.09998 26.2526L5.2085 23.0302C5.2085 23.0302 6.35469 22.3984 6.54572 22.4616C6.73676 22.5248 7.30986 22.7143 7.43721 22.6511C7.56457 22.5879 8.07398 22.4616 8.07398 22.4616Z" fill="#6C63FF"/>
<path d="M9.53857 22.588L9.72961 22.5248C9.72961 22.5248 10.1117 22.4616 10.5574 22.8407C11.0032 23.2198 12.6588 24.3571 12.6588 24.3571C12.6588 24.3571 13.2956 24.8626 13.1045 25.4312C12.9135 25.9999 12.5951 27.3899 11.6399 27.3267C11.6399 27.3267 11.0668 28.0849 10.7484 27.9586C10.4301 27.8322 10.1754 27.3267 10.3664 27.2636C10.5574 27.2004 11.0668 26.5685 11.0668 26.5685L10.4301 25.3681H10.239L9.53858 24.989L9.53857 22.588Z" fill="#6C63FF"/>
<path d="M5.71815 22.967L5.20873 23.0302C5.20873 23.0302 4.76299 23.2198 4.82667 24.0412C4.89034 24.8625 4.4446 28.5903 4.63564 29.0326C4.63564 29.0326 3.99886 31.1809 4.12622 31.244C4.25357 31.3072 5.0177 31.6863 4.95402 31.4336C4.89035 31.1808 5.65448 29.4117 5.65448 29.4117C5.65448 29.4117 6.54596 28.464 6.1639 27.1371V26.063L5.71815 22.967Z" fill="#6C63FF"/>
<path d="M9.79219 21.8552L8.98268 22.0302L8.87865 21.6347L8.91865 22.0441L7.61274 22.3263L7.55531 22.108L7.57739 22.334L6.74096 22.5148L6.56203 20.8105C6.37808 20.1112 7.04945 19.3658 7.75426 19.1833L8.06693 19.1023C8.58459 18.9683 9.52556 19.0902 9.66066 19.6038C9.42419 20.4993 9.02107 21.4811 9.79219 21.8552Z" fill="#2F2E41"/>
</g>
<defs>
<clipPath id="clip0_181_210">
<rect width="59" height="44" fill="white"/>
</clipPath>
</defs>
</svg>
